<svg width="394" height="381" viewBox="0 0 394 381" fill="none" xmlns="http://www.w3.org/2000/svg">
<g clip-path="url(#clip0_29_49)">
<path d="M34.5529 364.496C34.9739 364.515 35.3909 364.404 35.747 364.179C36.1032 363.953 36.3814 363.624 36.544 363.235C36.7066 362.846 36.7458 362.417 36.6562 362.005C36.5665 361.593 36.3524 361.218 36.0429 360.932L35.902 360.372C35.9205 360.327 35.9392 360.282 35.9579 360.238C36.3822 359.236 37.093 358.381 38.0012 357.782C38.9094 357.183 39.9745 356.865 41.0626 356.869C42.1507 356.873 43.2134 357.199 44.1171 357.805C45.0208 358.411 45.7253 359.27 46.142 360.276C47.8077 364.287 49.9284 368.306 50.4505 372.548C50.6805 374.423 50.5835 376.324 50.1638 378.165C54.076 369.631 56.1075 360.355 56.1205 350.967C56.1214 348.611 55.9905 346.257 55.7285 343.916C55.512 341.997 55.2116 340.091 54.8273 338.199C52.7305 327.933 48.2285 318.311 41.691 310.123C38.5269 308.396 35.9681 305.742 34.3593 302.516C33.7764 301.356 33.3645 300.119 33.1363 298.841C33.4932 298.888 34.4821 293.452 34.2129 293.118C34.7104 292.363 35.6006 291.988 36.1439 291.252C38.8457 287.588 42.5681 288.228 44.5114 293.206C48.6626 295.301 48.7028 298.776 46.1556 302.118C44.5351 304.244 44.3124 307.121 42.8905 309.397C43.0368 309.585 43.189 309.766 43.3352 309.953C46.0093 313.392 48.34 317.084 50.2939 320.978C49.8187 316.616 50.3858 312.204 51.9485 308.104C53.5323 304.283 56.5008 301.065 59.1149 297.762C62.2549 293.795 68.6938 295.526 69.247 300.556C69.2523 300.605 69.2576 300.653 69.2626 300.702C68.8744 300.921 68.4943 301.153 68.1224 301.399C67.6552 301.712 67.2932 302.158 67.0838 302.679C66.8744 303.2 66.8274 303.773 66.9489 304.321C67.0704 304.87 67.3549 305.369 67.7649 305.753C68.1749 306.138 68.6914 306.389 69.2467 306.474L69.3036 306.483C69.1653 307.883 68.9208 309.27 68.5722 310.632C71.9258 323.602 64.6856 328.326 54.3475 328.538C54.1193 328.655 53.8969 328.772 53.6687 328.883C55.6317 334.446 56.863 340.241 57.3317 346.122C57.597 349.591 57.5814 353.077 57.2849 356.544L57.3025 356.421C58.0515 352.566 60.108 349.087 63.1246 346.573C67.6051 342.892 73.9351 341.537 78.7687 338.578C79.2824 338.248 79.8797 338.072 80.4902 338.071C81.1006 338.069 81.6988 338.242 82.2141 338.57C82.7294 338.897 83.1403 339.365 83.3985 339.918C83.6566 340.471 83.7512 341.087 83.671 341.692C83.6645 341.735 83.6579 341.778 83.6512 341.821C82.9306 342.115 82.2291 342.453 81.5506 342.833C81.1623 343.052 80.7822 343.285 80.4103 343.531C79.9431 343.843 79.5811 344.289 79.3717 344.81C79.1623 345.332 79.1153 345.904 79.2369 346.453C79.3584 347.002 79.6428 347.501 80.0528 347.885C80.4628 348.269 80.9793 348.52 81.5346 348.606L81.5915 348.615C81.6325 348.621 81.6676 348.626 81.7085 348.632C80.4774 351.572 78.7494 354.278 76.6003 356.631C74.5034 367.954 65.497 369.028 55.863 365.731H55.8572C54.8001 370.324 53.2686 374.795 51.2872 379.072H34.962C34.9034 378.891 34.8507 378.704 34.7981 378.522C36.3092 378.617 37.8262 378.527 39.3154 378.253C38.1041 376.767 36.8929 375.269 35.6816 373.782C35.6546 373.755 35.6292 373.725 35.6056 373.695C34.9911 372.934 34.3709 372.179 33.7565 371.418L33.7562 371.418C33.7235 369.086 33.9916 366.759 34.5529 364.496Z" fill="#F2F2F2"/>
<path d="M61.7551 219.32C57.4285 203.61 49.3577 190.229 36.3269 179.936C35.8113 179.139 35.0008 178.58 34.0733 178.38C33.1457 178.18 32.1768 178.357 31.3791 178.871L1.63647 198.075C0.839958 198.591 0.280468 199.401 0.0807571 200.329C-0.11895 201.257 0.0574493 202.225 0.571217 203.023L25.9995 242.407C26.5151 243.204 27.3255 243.763 28.2531 243.963C29.1807 244.163 30.1496 243.986 30.9472 243.473L60.6898 224.268C61.4864 223.752 62.0458 222.942 62.2456 222.014C62.4453 221.087 62.2689 220.118 61.7551 219.32Z" fill="#F2F2F2"/>
<path d="M51.7933 208.898C50.6784 200.597 43.8119 192.111 35.4457 183.578C34.9629 182.832 34.2039 182.308 33.3352 182.121C32.4665 181.934 31.559 182.099 30.812 182.58L5.25073 199.085C4.50473 199.568 3.98072 200.327 3.79366 201.196C3.6066 202.064 3.77172 202.972 4.25288 203.719L26.8806 238.766C27.3635 239.512 28.1225 240.036 28.9913 240.223C29.86 240.41 30.7674 240.244 31.5145 239.763L47.3492 229.539C50.672 227.388 53.006 224.007 53.8392 220.137C54.6723 216.268 53.9366 212.225 51.7933 208.898Z" fill="white"/>
<path d="M49.5125 242.742C53.2867 226.89 52.6573 211.277 46.1945 195.979C46.1263 195.033 45.6855 194.152 44.9688 193.531C44.252 192.909 43.3179 192.597 42.3714 192.663L7.05658 195.169C6.11022 195.237 5.22956 195.678 4.60782 196.395C3.98608 197.111 3.67403 198.045 3.74012 198.992L7.0581 245.755C7.12632 246.701 7.56715 247.582 8.28386 248.203C9.00058 248.825 9.93468 249.137 10.8812 249.071L46.196 246.565C47.1424 246.497 48.0231 246.056 48.6448 245.339C49.2665 244.623 49.5786 243.689 49.5125 242.742Z" fill="#F2F2F2"/>
<path d="M45.8014 228.81C48.8218 220.998 46.8906 210.255 43.6683 198.747C43.6044 197.86 43.1916 197.035 42.5203 196.453C41.8491 195.871 40.9743 195.579 40.0878 195.64L9.73774 197.794C8.85141 197.858 8.02662 198.271 7.4443 198.942C6.86198 199.613 6.5697 200.488 6.63158 201.375L9.58411 242.987C9.64802 243.873 10.0609 244.698 10.7322 245.281C11.4035 245.863 12.2783 246.155 13.1647 246.093L31.966 244.759C35.9139 244.474 39.5877 242.635 42.1815 239.645C44.7752 236.655 46.0771 232.759 45.8014 228.81Z" fill="white"/>
<path d="M46.4673 144.882L61.5965 88.882C62.2445 86.5113 63.7985 84.4905 65.9233 83.2557C68.048 82.0208 70.5731 81.6708 72.9535 82.2813C74.185 82.5971 75.3393 83.1604 76.3459 83.9369C77.3526 84.7134 78.1906 85.6868 78.8088 86.7977C79.4271 87.9086 79.8126 89.1338 79.9418 90.3986C80.0711 91.6634 79.9415 92.9413 79.5608 94.1543L62.062 151.843L52.9068 187.344C54.2402 188.363 55.2278 189.767 55.7355 191.366C56.2433 192.965 56.2464 194.681 55.7446 196.282C55.2428 197.883 54.2603 199.291 52.9307 200.314C51.601 201.337 49.9887 201.926 48.3126 202.001C46.6366 202.075 44.9782 201.632 43.5628 200.732C42.1473 199.831 41.0433 198.517 40.4009 196.967C39.7585 195.417 39.6088 193.707 39.972 192.069C40.3353 190.431 41.194 188.945 42.4314 187.812L46.4673 144.882Z" fill="#FFB6B6"/>
<path d="M155.577 154.569L140.062 98.6754C139.412 96.3054 139.719 93.7747 140.918 91.6295C142.117 89.4842 144.112 87.8965 146.471 87.2088C147.692 86.853 148.972 86.7495 150.234 86.9047C151.495 87.0599 152.712 87.4704 153.81 88.1113C154.908 88.7521 155.864 89.6099 156.62 90.6323C157.376 91.6547 157.915 92.8203 158.206 94.0581L172.542 152.612L182.754 187.825C184.42 188.022 185.985 188.726 187.236 189.844C188.488 190.961 189.365 192.436 189.749 194.069C190.133 195.703 190.005 197.415 189.382 198.972C188.76 200.53 187.672 201.859 186.268 202.777C184.864 203.695 183.212 204.159 181.535 204.106C179.858 204.052 178.238 203.483 176.896 202.477C175.553 201.471 174.553 200.076 174.031 198.481C173.509 196.887 173.491 195.17 173.978 193.565L155.577 154.569Z" fill="#FFB6B6"/>
<path d="M66.7911 369.275L76.6781 369.274L81.381 331.139L66.7897 331.139L66.7911 369.275Z" fill="#FFB6B6"/>
<path d="M66.4433 379.589L96.8456 379.588V379.203C96.8454 376.065 95.5987 373.055 93.3795 370.836C91.1603 368.616 88.1505 367.37 85.0122 367.369L79.4581 363.156L69.0968 367.37L66.4428 367.37L66.4433 379.589Z" fill="#2F2E41"/>
<path d="M136.365 369.374L146.098 367.638L144.035 329.268L129.67 331.831L136.365 369.374Z" fill="#FFB6B6"/>
<path d="M137.833 379.589L167.763 374.251L167.696 373.872C167.145 370.783 165.389 368.038 162.815 366.243C160.24 364.448 157.059 363.749 153.969 364.3L147.762 361.127L138.301 367.094L135.688 367.56L137.833 379.589Z" fill="#2F2E41"/>
<path d="M135.402 193.934C135.402 193.934 144.616 206.985 144.24 211.365C143.864 215.745 140.61 212.251 143.864 215.745C147.118 219.238 149.014 216.894 147.416 221.211C145.817 225.527 145.166 222.732 145.817 225.527C146.468 228.323 145.166 335.236 145.166 335.236H128.222C128.222 335.236 118.667 273.243 119.877 270.348C121.087 267.454 121.059 268.714 119.771 265.638C118.483 262.563 117.272 258.904 117.272 258.904L103.879 221.211L93.5483 274.282L81.3879 337.345H65.151C65.151 337.345 62.3707 244.609 61.1413 243.454C59.912 242.298 61.3827 239.701 62.9251 238.205C64.4676 236.708 64.1601 235.188 63.663 232.105C63.166 229.021 61.0691 227.302 61.1413 225.366C61.2136 223.431 56.6581 192.685 63.8168 187.793C70.9755 182.902 135.402 193.934 135.402 193.934Z" fill="#2F2E41"/>
<path d="M78.7488 63.933L97.7015 59.0216L106.548 46.8191L127.559 49.4021L132.031 66.0464L146.989 74.7291C120.176 74.8894 134.615 152.572 130.675 157.584C127.467 161.663 146.682 171.366 140.66 177.555C134.638 183.745 136.864 181.268 138.262 188.007C139.659 194.746 149.845 201.877 138.262 201.806C126.678 201.736 56.7811 200.737 58.7781 192.749C60.7751 184.76 60.7437 186.789 63.755 181.78C66.7664 176.771 68.793 179.57 67.7797 172.179C66.7663 164.789 70.0576 159.072 67.7648 155.801C64.2457 150.781 67.7921 114.543 71.1106 115.511L78.7488 63.933Z" fill="#6561A8"/>
<path d="M84.1601 64.192C84.1601 64.192 70.2963 58.302 65.3036 69.2862C63.709 72.7946 62.3663 81.6066 61.0726 79.6525C59.7788 77.6984 61.0271 81.9823 60.2262 81.9876C59.5114 81.9924 58.4123 80.8361 59.243 84.8195C59.5032 86.1262 59.4283 87.4775 59.0253 88.7474C58.6222 90.0173 57.9041 91.1645 56.938 92.0819L81.0338 106.514L84.1601 64.192Z" fill="#6561A8"/>
<path d="M136.249 74.1776C136.249 74.1776 150.113 68.2876 155.106 79.2718C156.51 82.3611 156.16 89.2252 158.895 88.4546C161.629 87.684 159.688 90.5875 160.049 91.5962C160.451 92.7205 158.695 95.9021 161.161 94.7887C163.626 93.6754 163.471 102.067 163.471 102.067L139.375 116.499L136.249 74.1776Z" fill="#6561A8"/>
<path d="M129.676 57.7268L133.67 64.7168C133.67 64.7168 144.654 70.7082 144.654 71.7068C144.654 72.7053 142.657 80.859 144.654 87.2672C146.651 93.6753 140.842 105.727 139.661 115.644C134.669 157.584 149.516 172.823 152.642 199.524L120.957 208.778C120.957 208.778 115.697 138.611 115.697 122.634C115.697 106.657 129.676 57.7268 129.676 57.7268Z" fill="#2F2E41"/>
<path d="M100.719 54.7312L92.556 59.3741C92.556 59.3741 81.874 61.7294 81.7465 62.7198C81.6189 63.7102 81.581 74.2362 78.7818 80.3367C75.9826 86.4373 76.7538 89.6812 69.2151 107.716C65.3634 116.93 56.5206 190.653 56.5206 190.653L86.7646 203.879C86.7646 203.879 100.944 134.959 102.985 119.113C105.025 103.266 100.719 54.7312 100.719 54.7312Z" fill="#2F2E41"/>
<path d="M121.129 45.2108C109.726 45.2108 100.482 35.9666 100.482 24.5633C100.482 13.16 109.726 3.91577 121.129 3.91577C132.532 3.91577 141.775 13.16 141.775 24.5633C141.775 35.9666 132.532 45.2108 121.129 45.2108Z" fill="#FFB6B6"/>
<path d="M107.541 40.6055C112.421 36.7905 105.75 20.0079 113.809 23.5901C113.809 23.5901 123.66 17.3213 125.639 21.4408C127.931 26.2108 136.081 24.0468 141.087 22.3632C140.693 21.4486 140.414 20.4892 140.254 19.5064C141.178 20.2345 142.157 20.8902 143.182 21.4677C143.87 21.1003 144.478 20.6012 144.973 19.9989C145.462 19.4396 145.767 18.7443 145.849 18.0063C145.931 17.2683 145.784 16.523 145.43 15.8705C144.597 14.5898 142.878 14.1958 141.866 13.0584C141.749 12.8985 141.673 12.7126 141.643 12.5166C141.614 12.3207 141.633 12.1205 141.698 11.9334C141.818 11.4758 141.837 10.9972 141.751 10.5318C141.666 10.0663 141.479 9.62549 141.203 9.24062C140.928 8.85575 140.571 8.53634 140.158 8.30515C139.745 8.07397 139.286 7.93668 138.814 7.90309C138.625 7.90889 138.436 7.86786 138.266 7.78362C137.416 7.26364 136.632 6.64433 135.929 5.93879C137.102 5.99253 135.667 -1.18871 124.036 0.171444C121.108 0.0639879 119.579 3.29368 116.695 3.80415C109.705 -0.190132 103.466 5.57164 100.43 11.0792C97.3946 16.5869 94.1081 34.3367 107.541 40.6055Z" fill="#2F2E41"/>
<path d="M195.639 10.9851H380.716C384.237 10.988 387.613 12.3876 390.103 14.8767C392.594 17.3659 393.995 20.7413 394 24.2624V191.038C393.995 194.56 392.594 197.937 390.104 200.427C387.614 202.917 384.238 204.318 380.716 204.323H195.639C192.118 204.318 188.742 202.917 186.253 200.426C183.764 197.936 182.365 194.56 182.362 191.038V24.2624C182.365 20.7421 183.765 17.3668 186.254 14.8775C188.743 12.3882 192.118 10.9883 195.639 10.9851Z" fill="white"/>
<path d="M280.203 49.2628H299.975C300.947 49.2628 301.878 48.8771 302.565 48.1904C303.251 47.5037 303.637 46.5723 303.637 45.6012C303.637 44.63 303.251 43.6986 302.565 43.0119C301.878 42.3252 300.947 41.9395 299.975 41.9395H280.203C279.232 41.9395 278.301 42.3252 277.614 43.0119C276.927 43.6986 276.541 44.63 276.541 45.6012C276.541 46.5723 276.927 47.5037 277.614 48.1904C278.301 48.8771 279.232 49.2628 280.203 49.2628Z" fill="#6561A8"/>
<path d="M18.0352 217.505H37.8076C38.7788 217.505 39.7101 217.119 40.3968 216.433C41.0834 215.746 41.4692 214.814 41.4692 213.843C41.4692 212.872 41.0834 211.941 40.3968 211.254C39.7101 210.567 38.7788 210.182 37.8076 210.182H18.0352C17.0641 210.182 16.1327 210.567 15.4461 211.254C14.7594 211.941 14.3737 212.872 14.3737 213.843C14.3737 214.814 14.7594 215.746 15.4461 216.433C16.1327 217.119 17.0641 217.505 18.0352 217.505Z" fill="#6561A8"/>
<path d="M228.941 125.963H351.237C352.208 125.963 353.14 125.577 353.826 124.89C354.513 124.203 354.899 123.272 354.899 122.301C354.899 121.33 354.513 120.398 353.826 119.712C353.14 119.025 352.208 118.639 351.237 118.639H228.941C227.97 118.639 227.039 119.025 226.352 119.712C225.665 120.398 225.28 121.33 225.28 122.301C225.28 123.272 225.665 124.203 226.352 124.89C227.039 125.577 227.97 125.963 228.941 125.963Z" fill="#E6E6E6"/>
<path d="M228.941 150.13H351.237C352.208 150.13 353.14 149.744 353.826 149.057C354.513 148.371 354.899 147.439 354.899 146.468C354.899 145.497 354.513 144.566 353.826 143.879C353.14 143.192 352.208 142.806 351.237 142.806H228.941C227.97 142.806 227.039 143.192 226.352 143.879C225.665 144.566 225.28 145.497 225.28 146.468C225.28 147.439 225.665 148.371 226.352 149.057C227.039 149.744 227.97 150.13 228.941 150.13Z" fill="#E6E6E6"/>
<path d="M228.941 174.297H351.237C352.208 174.297 353.14 173.911 353.826 173.225C354.513 172.538 354.899 171.606 354.899 170.635C354.899 169.664 354.513 168.733 353.826 168.046C353.14 167.359 352.208 166.974 351.237 166.974H228.941C227.97 166.974 227.039 167.359 226.352 168.046C225.665 168.733 225.28 169.664 225.28 170.635C225.28 171.606 225.665 172.538 226.352 173.225C227.039 173.911 227.97 174.297 228.941 174.297Z" fill="#E6E6E6"/>
<path d="M253.938 60.2495H326.239C329.76 60.2524 333.136 61.652 335.627 64.1412C338.117 66.6303 339.518 70.0057 339.523 73.5268V95.2993C339.519 98.8212 338.118 102.198 335.627 104.688C333.137 107.178 329.761 108.579 326.239 108.584H253.938C250.417 108.579 247.042 107.178 244.553 104.687C242.064 102.197 240.664 98.8205 240.661 95.2993V73.5268C240.664 70.0065 242.064 66.6312 244.553 64.1419C247.043 61.6526 250.418 60.2527 253.938 60.2495ZM242.126 95.2993C242.126 98.4342 243.371 101.441 245.588 103.657C247.804 105.874 250.811 107.119 253.945 107.119H305.846C314.39 107.119 322.583 103.725 328.624 97.6842C334.665 91.6429 338.059 83.4493 338.059 74.9057V73.5268C338.054 70.3942 336.807 67.3914 334.591 65.177C332.375 62.9625 329.372 61.7172 326.239 61.7142H253.938C250.806 61.7175 247.804 62.9631 245.589 65.1777C243.375 67.3923 242.129 70.395 242.126 73.5268V95.2993Z" fill="#E6E6E6"/>
<path d="M289.279 92.2748C282.404 92.2748 276.83 86.7009 276.83 79.825C276.83 72.9492 282.404 67.3752 289.279 67.3752C296.155 67.3752 301.729 72.9492 301.729 79.825C301.729 86.7009 296.155 92.2748 289.279 92.2748Z" fill="#E6E6E6"/>
<path d="M260.639 108.584L316.375 108.386L298.799 103.992L296.61 96.7642L279.759 96.6689L274.714 103.817L261.971 107.119L260.814 107.42L260.639 108.584Z" fill="#E6E6E6"/>
<path d="M296.355 87.7741C293.683 85.6858 297.335 76.4994 292.923 78.4603C292.923 78.4603 287.531 75.0288 286.448 77.2838C285.194 79.8948 280.732 78.7103 277.992 77.7887C278.208 77.2881 278.361 76.7629 278.448 76.2249C277.942 76.6235 277.406 76.9824 276.845 77.2985C276.469 77.0974 276.136 76.8242 275.865 76.4945C275.598 76.1884 275.43 75.8078 275.386 75.4038C275.341 74.9998 275.421 74.5919 275.615 74.2347C276.071 73.5337 277.012 73.318 277.566 72.6955C277.63 72.6079 277.672 72.5061 277.688 72.3989C277.704 72.2916 277.693 72.1821 277.658 72.0796C277.592 71.8292 277.582 71.5672 277.629 71.3124C277.675 71.0577 277.778 70.8164 277.929 70.6057C278.079 70.395 278.275 70.2202 278.501 70.0936C278.727 69.9671 278.978 69.8919 279.236 69.8736C279.34 69.8767 279.443 69.8543 279.536 69.8082C280.001 69.5235 280.431 69.1846 280.816 68.7984C280.174 68.8278 280.959 64.8969 287.325 65.6415C288.928 65.5826 289.765 67.3505 291.344 67.6299C295.17 65.4435 298.585 68.5974 300.247 71.6121C301.908 74.6268 303.707 84.3427 296.355 87.7741Z" fill="#E6E6E6"/>
<path d="M195.639 10.9851H380.716C384.237 10.988 387.613 12.3876 390.103 14.8767C392.594 17.3659 393.995 20.7413 394 24.2624V191.038C393.995 194.56 392.594 197.937 390.104 200.427C387.614 202.917 384.238 204.318 380.716 204.323H195.639C192.118 204.318 188.742 202.917 186.253 200.426C183.764 197.936 182.365 194.56 182.362 191.038V24.2624C182.365 20.7421 183.765 17.3668 186.254 14.8775C188.743 12.3882 192.118 10.9883 195.639 10.9851ZM183.826 191.038C183.826 194.173 185.072 197.18 187.288 199.396C189.505 201.613 192.511 202.858 195.646 202.858H297.188C309.709 202.858 322.108 200.392 333.676 195.6C345.244 190.808 355.755 183.785 364.609 174.931C373.463 166.076 380.486 155.565 385.277 143.996C390.069 132.428 392.535 120.029 392.535 107.507V24.2624C392.53 21.1298 391.283 18.127 389.068 15.9125C386.852 13.6981 383.848 12.4528 380.716 12.4498H195.639C192.507 12.4531 189.504 13.6987 187.29 15.9133C185.075 18.1279 183.83 21.1306 183.826 24.2624V191.038Z" fill="#E6E6E6"/>
<path d="M2.28088 380.775L233.221 381C233.452 380.999 233.672 380.906 233.835 380.743C233.997 380.58 234.089 380.359 234.089 380.128C234.089 379.898 233.997 379.676 233.835 379.513C233.672 379.35 233.452 379.257 233.221 379.256L2.28088 379.031C2.05038 379.032 1.82973 379.125 1.66716 379.288C1.50458 379.451 1.41331 379.672 1.41331 379.903C1.41331 380.133 1.50458 380.355 1.66716 380.518C1.82973 380.681 2.05038 380.774 2.28088 380.775Z" fill="#CACACA"/>
</g>
<defs>
<clipPath id="clip0_29_49">
<rect width="394" height="381" fill="white" transform="matrix(-1 0 0 1 394 0)"/>
</clipPath>
</defs>
</svg>
