<svg width="60" height="55" viewBox="0 0 60 55" fill="none" xmlns="http://www.w3.org/2000/svg">
<path d="M6.64 40.24C5.68 40.24 4.74667 40.08 3.84 39.76C2.93333 39.44 2.18667 38.96 1.6 38.32C0.986667 37.6533 0.68 36.8 0.68 35.76C0.68 34.5067 1.17333 33.2133 2.16 31.88C3.14667 30.5467 4.50667 29.48 6.24 28.68C7.73333 28.0133 9.29333 27.5333 10.92 27.24C12.5733 26.92 14.28 26.76 16.04 26.76C17.2933 26.76 18.5333 26.8133 19.76 26.92C20.9867 27 22.2133 27.12 23.44 27.28C24.7733 25.8133 26.12 24.4267 27.48 23.12C28.84 21.7867 30.1867 20.64 31.52 19.68C32.88 18.72 34.2267 18.0933 35.56 17.8C34.8133 17.8 33.8933 17.76 32.8 17.68C31.7067 17.5733 30.5333 17.4667 29.28 17.36C28.0533 17.2533 26.8133 17.2 25.56 17.2C23.7467 17.2 22.04 17.3867 20.44 17.76C18.8667 18.1333 17.6533 18.9067 16.8 20.08C16.56 20.4267 16.3867 20.76 16.28 21.08C16.1733 21.4 16.12 21.7067 16.12 22C16.12 22.3733 16.2 22.7067 16.36 23C16.4667 23.1067 16.5867 23.2267 16.72 23.36C16.8533 23.4667 16.9733 23.52 17.08 23.52C16.9733 23.6267 16.84 23.68 16.68 23.68C16.4933 23.68 16.3067 23.64 16.12 23.56C15.96 23.4533 15.8267 23.3467 15.72 23.24C15.4533 22.9467 15.2533 22.6133 15.12 22.24C14.9867 21.84 14.92 21.4533 14.92 21.08C14.92 20.3333 15.0933 19.7067 15.44 19.2C16.2133 18.1867 17.1733 17.44 18.32 16.96C19.4933 16.48 20.96 16.24 22.72 16.24C22.9333 16.24 23.1467 16.24 23.36 16.24C23.6 16.24 23.8267 16.2533 24.04 16.28C26.04 16.3867 28 16.5867 29.92 16.88C31.84 17.1733 33.88 17.32 36.04 17.32C37.2133 17.32 38.2667 17.2667 39.2 17.16C40.16 17.0267 40.7867 16.8 41.08 16.48H41.16C41.48 16.48 41.64 16.6533 41.64 17C41.6133 17.4533 41.3733 17.76 40.92 17.92C40.4933 18.08 40.0133 18.16 39.48 18.16C39.0533 18.16 38.6267 18.1333 38.2 18.08C37.8 18.0267 37.4667 17.9867 37.2 17.96C35.8667 18.04 34.4667 18.5467 33 19.48C31.56 20.3867 30.1067 21.5467 28.64 22.96C27.1733 24.3467 25.72 25.8267 24.28 27.4C24.76 27.48 25.24 27.56 25.72 27.64C26.2267 27.72 26.72 27.8133 27.2 27.92C28.08 26.8267 28.9867 25.7733 29.92 24.76C30.8533 23.7467 31.76 22.8133 32.64 21.96C33.2267 21.3733 33.8667 20.8133 34.56 20.28C35.2533 19.7467 35.9333 19.3067 36.6 18.96C37.2667 18.5867 37.8533 18.4 38.36 18.4C38.0133 18.6667 37.48 19.16 36.76 19.88C36.04 20.5733 35.3733 21.2533 34.76 21.92C34.0133 22.7467 33.1467 23.72 32.16 24.84C31.2 25.96 30.2533 27.12 29.32 28.32C29.8267 28.4267 30.32 28.5333 30.8 28.64C31.3067 28.7467 31.8133 28.8667 32.32 29C32.5333 29.0267 32.64 29.1067 32.64 29.24C32.64 29.2933 32.5867 29.3467 32.48 29.4C32.4 29.4533 32.2933 29.4667 32.16 29.44L28.92 28.8C27.8533 30.1333 26.88 31.4133 26 32.64C25.1467 33.8667 24.5333 34.84 24.16 35.56C23.9733 35.9067 23.8133 36.2667 23.68 36.64C23.5467 36.9867 23.48 37.3067 23.48 37.6C23.48 38.1333 23.7067 38.4 24.16 38.4C24.4533 38.4 24.8533 38.2667 25.36 38C26.1333 37.5467 26.8133 37.0133 27.4 36.4C28.0133 35.7867 28.5867 35.1733 29.12 34.56C29.2267 34.56 29.28 34.64 29.28 34.8C29.28 35.04 29.2267 35.2267 29.12 35.36C27.8933 36.8 26.8667 37.7867 26.04 38.32C25.24 38.8267 24.3467 39.08 23.36 39.08C22.72 39.08 22.2533 38.9333 21.96 38.64C21.6933 38.32 21.56 37.9333 21.56 37.48C21.56 37.0267 21.6533 36.5333 21.84 36C22.0533 35.4667 22.3067 34.9467 22.6 34.44C23.1333 33.5067 23.76 32.5333 24.48 31.52C25.2 30.48 25.9733 29.44 26.8 28.4C26.2933 28.32 25.7867 28.24 25.28 28.16C24.8 28.08 24.2933 28.0133 23.76 27.96C22.6667 29.1867 21.5867 30.3867 20.52 31.56C19.4533 32.7333 18.4267 33.8 17.44 34.76C16.4533 35.72 15.4267 36.6267 14.36 37.48C13.2933 38.3067 12.1333 38.9733 10.88 39.48C9.62667 39.9867 8.21333 40.24 6.64 40.24ZM6.8 38.72C7.70667 38.72 8.65333 38.6133 9.64 38.4C10.6267 38.1867 11.6933 37.76 12.84 37.12C14.0133 36.48 15.2933 35.5333 16.68 34.28C17.6933 33.3467 18.72 32.3333 19.76 31.24C20.8 30.12 21.8533 28.9867 22.92 27.84C22.2 27.76 21.4667 27.6933 20.72 27.64C20 27.5867 19.2667 27.56 18.52 27.56C16.4933 27.56 14.4133 27.6667 12.28 27.88C10.1733 28.0667 8.13333 28.6267 6.16 29.56C4.64 30.2267 3.50667 31.0667 2.76 32.08C1.98667 33.0933 1.6 34.0667 1.6 35C1.6 36.0133 2.04 36.8933 2.92 37.64C3.8 38.36 5.09333 38.72 6.8 38.72ZM40.8928 45.48C39.5328 45.48 38.3061 45.08 37.2128 44.28C36.1461 43.48 35.4661 42.32 35.1728 40.8C33.5461 40.3467 32.3728 39.52 31.6528 38.32C30.9328 37.0933 30.5728 35.68 30.5728 34.08C30.5728 32.56 30.8528 30.9867 31.4128 29.36C31.9995 27.7333 32.8128 26.2267 33.8528 24.84C34.8928 23.4267 36.1328 22.2933 37.5728 21.44C39.0128 20.56 40.5995 20.12 42.3328 20.12C43.4261 20.12 44.2928 20.3867 44.9328 20.92C45.5995 21.4267 46.0795 22.0933 46.3728 22.92C46.6661 23.72 46.8128 24.5467 46.8128 25.4C46.8128 25.6667 46.7995 25.9333 46.7728 26.2C46.7461 26.44 46.7061 26.6933 46.6528 26.96C46.9728 26.8 47.2928 26.64 47.6128 26.48C47.9595 26.32 48.3061 26.1733 48.6528 26.04L49.2128 25.8C49.6661 24.7067 50.1461 23.64 50.6528 22.6C51.1595 21.5333 51.7328 20.5467 52.3728 19.64C52.9061 18.8933 53.5461 18.2267 54.2928 17.64C55.0661 17.0533 55.9061 16.76 56.8128 16.76C57.6395 16.76 58.2261 16.9467 58.5728 17.32C58.9195 17.6667 59.0928 18.1067 59.0928 18.64C59.0928 19.3867 58.8395 20.0933 58.3328 20.76C57.8528 21.4267 57.2261 22.0533 56.4528 22.64C55.6795 23.2 54.8395 23.7333 53.9328 24.24C53.0528 24.72 52.1995 25.1467 51.3728 25.52C50.8395 27.12 50.2795 28.7333 49.6928 30.36C49.1328 31.96 48.4395 33.48 47.6128 34.92C46.7861 36.3333 45.6928 37.5867 44.3328 38.68C43.3195 39.5067 42.2128 40.12 41.0128 40.52C39.8395 40.92 38.7061 41.12 37.6128 41.12C37.4261 41.12 37.2395 41.1067 37.0528 41.08C36.8928 41.08 36.7328 41.0667 36.5728 41.04C36.7861 42.1067 37.2395 43.0133 37.9328 43.76C38.6261 44.5333 39.6795 44.92 41.0928 44.92C41.5195 44.92 41.9195 44.8533 42.2928 44.72C42.6661 44.6133 43.0928 44.4 43.5728 44.08C43.5728 44.08 43.5728 44.0667 43.5728 44.04C43.5995 44.04 43.6261 44.04 43.6528 44.04C43.7328 44.04 43.7728 44.12 43.7728 44.28C43.7728 44.4667 43.6128 44.6533 43.2928 44.84C42.9995 45.0267 42.6261 45.1733 42.1728 45.28C41.7195 45.4133 41.2928 45.48 40.8928 45.48ZM51.6528 24.72C52.6928 24.2133 53.7195 23.6533 54.7328 23.04C55.7461 22.4 56.5861 21.72 57.2528 21C57.9195 20.2533 58.2528 19.48 58.2528 18.68C58.2528 18.3067 58.1595 17.9867 57.9728 17.72C57.8128 17.4267 57.5061 17.28 57.0528 17.28C56.5461 17.28 56.0528 17.4533 55.5728 17.8C55.1195 18.12 54.7195 18.5067 54.3728 18.96C54.0261 19.4133 53.7328 19.8533 53.4928 20.28C53.1461 20.9467 52.8128 21.6667 52.4928 22.44C52.1995 23.1867 51.9195 23.9467 51.6528 24.72ZM35.0928 40.2C35.0661 40.0667 35.0528 39.9333 35.0528 39.8C35.0528 39.6667 35.0528 39.5467 35.0528 39.44C35.0528 37.7333 35.5195 36.16 36.4528 34.72C37.3861 33.28 38.6395 31.96 40.2128 30.76C41.8128 29.56 43.5861 28.4667 45.5328 27.48C45.6928 26.8667 45.7728 26.24 45.7728 25.6C45.7728 24.8267 45.6661 24.0667 45.4528 23.32C45.2395 22.5733 44.8661 21.9467 44.3328 21.44C43.8261 20.9333 43.1195 20.68 42.2128 20.68C40.8261 20.68 39.5195 21.12 38.2928 22C37.0928 22.88 36.0395 24.0267 35.1328 25.44C34.2261 26.8267 33.5061 28.3333 32.9728 29.96C32.4661 31.56 32.2128 33.08 32.2128 34.52C32.2128 35.88 32.4261 37.08 32.8528 38.12C33.2795 39.1333 34.0261 39.8267 35.0928 40.2ZM36.4928 40.44H36.6528C37.5328 40.44 38.5328 40.1867 39.6528 39.68C40.7995 39.1733 42.0128 38.2533 43.2928 36.92C44.6261 35.5333 45.6928 33.9467 46.4928 32.16C47.3195 30.3467 48.1061 28.5067 48.8528 26.64L46.4128 27.92C45.9061 29.5467 45.0395 31.12 43.8128 32.64C42.6128 34.16 41.3195 35.4267 39.9328 36.44C39.7461 36.5733 39.5728 36.64 39.4128 36.64C39.2795 36.64 39.2128 36.6 39.2128 36.52C39.2128 36.44 39.2395 36.3733 39.2928 36.32C40.4661 35.44 41.6261 34.32 42.7728 32.96C43.9195 31.6 44.7461 30.1333 45.2528 28.56C43.7328 29.44 42.3061 30.4533 40.9728 31.6C39.6395 32.72 38.5461 33.9467 37.6928 35.28C36.8661 36.5867 36.4528 37.9867 36.4528 39.48C36.4528 39.64 36.4528 39.8 36.4528 39.96C36.4528 40.12 36.4661 40.28 36.4928 40.44Z" fill="white"/>
<path d="M53 39.4531C53.7344 39.4531 54.3516 39.7109 54.8516 40.2266C55.3516 40.7266 55.6016 41.3359 55.6016 42.0547C55.6016 42.7734 55.3438 43.3906 54.8281 43.9062C54.3281 44.4062 53.7188 44.6562 53 44.6562C52.2812 44.6562 51.6641 44.4062 51.1484 43.9062C50.6484 43.3906 50.3984 42.7734 50.3984 42.0547C50.3984 41.3203 50.6484 40.7031 51.1484 40.2031C51.6641 39.7031 52.2812 39.4531 53 39.4531Z" fill="#DDAC58"/>
</svg>
