<svg width="21" height="21" viewBox="0 0 21 21" fill="none" xmlns="http://www.w3.org/2000/svg">
<g clip-path="url(#clip0_19_41)">
<path d="M10.4594 0C4.68357 0 0 4.81369 0 10.7518C0 15.5024 2.99693 19.5326 7.1528 20.9543C7.6755 21.0538 7.86745 20.7211 7.86745 20.4371C7.86745 20.1807 7.85769 19.3337 7.85326 18.4353C4.94337 19.0857 4.32936 17.1667 4.32936 17.1667C3.85358 15.9239 3.16805 15.5935 3.16805 15.5935C2.21911 14.9262 3.23958 14.9398 3.23958 14.9398C4.28991 15.0157 4.84296 16.0479 4.84296 16.0479C5.77582 17.6916 7.28979 17.2164 7.88665 16.9417C7.98049 16.2467 8.25161 15.7725 8.55069 15.504C6.22757 15.232 3.78533 14.3101 3.78533 10.1903C3.78533 9.01652 4.19393 8.05733 4.86306 7.30439C4.75445 7.03354 4.39646 5.94001 4.96437 4.45902C4.96437 4.45902 5.84268 4.17003 7.84145 5.56114C8.67571 5.32284 9.5705 5.20344 10.4594 5.19939C11.3483 5.20344 12.2437 5.32284 13.0796 5.56114C15.076 4.17003 15.9531 4.45902 15.9531 4.45902C16.5224 5.94001 16.1643 7.03354 16.0556 7.30439C16.7263 8.05733 17.1321 9.01644 17.1321 10.1903C17.1321 14.3199 14.6852 15.2292 12.3562 15.4954C12.7313 15.829 13.0656 16.4834 13.0656 17.4865C13.0656 18.925 13.0535 20.0829 13.0535 20.4371C13.0535 20.7232 13.2417 21.0585 13.772 20.9529C17.9255 19.5296 20.9187 15.5008 20.9187 10.7518C20.9187 4.81369 16.2358 0 10.4594 0Z" fill="white"/>
<path d="M3.9174 15.3162C3.89443 15.3696 3.81257 15.3856 3.73816 15.349C3.66228 15.314 3.61963 15.2411 3.64424 15.1875C3.6668 15.1325 3.74866 15.1171 3.82438 15.1541C3.90042 15.1891 3.94373 15.2626 3.9174 15.3162ZM4.4319 15.7881C4.38203 15.8357 4.28449 15.8136 4.21829 15.7384C4.14988 15.6635 4.13708 15.5633 4.18769 15.515C4.23913 15.4675 4.33371 15.4897 4.40229 15.5647C4.4707 15.6405 4.48399 15.7401 4.43182 15.7882M4.78488 16.3919C4.72073 16.4377 4.6159 16.3947 4.55117 16.2991C4.48711 16.2036 4.48711 16.0889 4.55257 16.0429C4.61754 15.997 4.72073 16.0383 4.78636 16.1332C4.85034 16.2304 4.85034 16.3451 4.7848 16.392M5.38174 17.0912C5.3244 17.1561 5.20234 17.1387 5.11292 17.05C5.02154 16.9634 4.99603 16.8403 5.05353 16.7753C5.11153 16.7102 5.23433 16.7285 5.3244 16.8165C5.41521 16.903 5.44285 17.0269 5.38174 17.0912ZM6.15316 17.3273C6.12798 17.4115 6.01035 17.4497 5.89189 17.414C5.7736 17.3771 5.69617 17.2785 5.72004 17.1934C5.74465 17.1086 5.86277 17.0688 5.98213 17.107C6.10025 17.1437 6.17777 17.2416 6.15316 17.3273ZM7.03123 17.4274C7.03418 17.5161 6.93369 17.5896 6.80933 17.5912C6.68423 17.594 6.58309 17.5223 6.58178 17.4351C6.58178 17.3455 6.67997 17.2727 6.80498 17.2705C6.92934 17.268 7.03123 17.3393 7.03123 17.4274ZM7.8937 17.3934C7.90863 17.4799 7.82217 17.5688 7.69871 17.5924C7.57731 17.6152 7.46492 17.5618 7.44942 17.476C7.43433 17.3873 7.52243 17.2985 7.64359 17.2755C7.76729 17.2534 7.87795 17.3055 7.8937 17.3934Z" fill="#161614"/>
</g>
<defs>
<clipPath id="clip0_19_41">
<rect width="21" height="21" rx="10.5" fill="white"/>
</clipPath>
</defs>
</svg>
