<svg width="199" height="62" viewBox="0 0 199 62" fill="none" xmlns="http://www.w3.org/2000/svg">
<path d="M6.64 37.24C5.68 37.24 4.74667 37.08 3.84 36.76C2.93333 36.44 2.18667 35.96 1.6 35.32C0.986667 34.6533 0.68 33.8 0.68 32.76C0.68 31.5067 1.17333 30.2133 2.16 28.88C3.14667 27.5467 4.50667 26.48 6.24 25.68C7.73333 25.0133 9.29333 24.5333 10.92 24.24C12.5733 23.92 14.28 23.76 16.04 23.76C17.2933 23.76 18.5333 23.8133 19.76 23.92C20.9867 24 22.2133 24.12 23.44 24.28C24.7733 22.8133 26.12 21.4267 27.48 20.12C28.84 18.7867 30.1867 17.64 31.52 16.68C32.88 15.72 34.2267 15.0933 35.56 14.8C34.8133 14.8 33.8933 14.76 32.8 14.68C31.7067 14.5733 30.5333 14.4667 29.28 14.36C28.0533 14.2533 26.8133 14.2 25.56 14.2C23.7467 14.2 22.04 14.3867 20.44 14.76C18.8667 15.1333 17.6533 15.9067 16.8 17.08C16.56 17.4267 16.3867 17.76 16.28 18.08C16.1733 18.4 16.12 18.7067 16.12 19C16.12 19.3733 16.2 19.7067 16.36 20C16.4667 20.1067 16.5867 20.2267 16.72 20.36C16.8533 20.4667 16.9733 20.52 17.08 20.52C16.9733 20.6267 16.84 20.68 16.68 20.68C16.4933 20.68 16.3067 20.64 16.12 20.56C15.96 20.4533 15.8267 20.3467 15.72 20.24C15.4533 19.9467 15.2533 19.6133 15.12 19.24C14.9867 18.84 14.92 18.4533 14.92 18.08C14.92 17.3333 15.0933 16.7067 15.44 16.2C16.2133 15.1867 17.1733 14.44 18.32 13.96C19.4933 13.48 20.96 13.24 22.72 13.24C22.9333 13.24 23.1467 13.24 23.36 13.24C23.6 13.24 23.8267 13.2533 24.04 13.28C26.04 13.3867 28 13.5867 29.92 13.88C31.84 14.1733 33.88 14.32 36.04 14.32C37.2133 14.32 38.2667 14.2667 39.2 14.16C40.16 14.0267 40.7867 13.8 41.08 13.48H41.16C41.48 13.48 41.64 13.6533 41.64 14C41.6133 14.4533 41.3733 14.76 40.92 14.92C40.4933 15.08 40.0133 15.16 39.48 15.16C39.0533 15.16 38.6267 15.1333 38.2 15.08C37.8 15.0267 37.4667 14.9867 37.2 14.96C35.8667 15.04 34.4667 15.5467 33 16.48C31.56 17.3867 30.1067 18.5467 28.64 19.96C27.1733 21.3467 25.72 22.8267 24.28 24.4C24.76 24.48 25.24 24.56 25.72 24.64C26.2267 24.72 26.72 24.8133 27.2 24.92C28.08 23.8267 28.9867 22.7733 29.92 21.76C30.8533 20.7467 31.76 19.8133 32.64 18.96C33.2267 18.3733 33.8667 17.8133 34.56 17.28C35.2533 16.7467 35.9333 16.3067 36.6 15.96C37.2667 15.5867 37.8533 15.4 38.36 15.4C38.0133 15.6667 37.48 16.16 36.76 16.88C36.04 17.5733 35.3733 18.2533 34.76 18.92C34.0133 19.7467 33.1467 20.72 32.16 21.84C31.2 22.96 30.2533 24.12 29.32 25.32C29.8267 25.4267 30.32 25.5333 30.8 25.64C31.3067 25.7467 31.8133 25.8667 32.32 26C32.5333 26.0267 32.64 26.1067 32.64 26.24C32.64 26.2933 32.5867 26.3467 32.48 26.4C32.4 26.4533 32.2933 26.4667 32.16 26.44L28.92 25.8C27.8533 27.1333 26.88 28.4133 26 29.64C25.1467 30.8667 24.5333 31.84 24.16 32.56C23.9733 32.9067 23.8133 33.2667 23.68 33.64C23.5467 33.9867 23.48 34.3067 23.48 34.6C23.48 35.1333 23.7067 35.4 24.16 35.4C24.4533 35.4 24.8533 35.2667 25.36 35C26.1333 34.5467 26.8133 34.0133 27.4 33.4C28.0133 32.7867 28.5867 32.1733 29.12 31.56C29.2267 31.56 29.28 31.64 29.28 31.8C29.28 32.04 29.2267 32.2267 29.12 32.36C27.8933 33.8 26.8667 34.7867 26.04 35.32C25.24 35.8267 24.3467 36.08 23.36 36.08C22.72 36.08 22.2533 35.9333 21.96 35.64C21.6933 35.32 21.56 34.9333 21.56 34.48C21.56 34.0267 21.6533 33.5333 21.84 33C22.0533 32.4667 22.3067 31.9467 22.6 31.44C23.1333 30.5067 23.76 29.5333 24.48 28.52C25.2 27.48 25.9733 26.44 26.8 25.4C26.2933 25.32 25.7867 25.24 25.28 25.16C24.8 25.08 24.2933 25.0133 23.76 24.96C22.6667 26.1867 21.5867 27.3867 20.52 28.56C19.4533 29.7333 18.4267 30.8 17.44 31.76C16.4533 32.72 15.4267 33.6267 14.36 34.48C13.2933 35.3067 12.1333 35.9733 10.88 36.48C9.62667 36.9867 8.21333 37.24 6.64 37.24ZM6.8 35.72C7.70667 35.72 8.65333 35.6133 9.64 35.4C10.6267 35.1867 11.6933 34.76 12.84 34.12C14.0133 33.48 15.2933 32.5333 16.68 31.28C17.6933 30.3467 18.72 29.3333 19.76 28.24C20.8 27.12 21.8533 25.9867 22.92 24.84C22.2 24.76 21.4667 24.6933 20.72 24.64C20 24.5867 19.2667 24.56 18.52 24.56C16.4933 24.56 14.4133 24.6667 12.28 24.88C10.1733 25.0667 8.13333 25.6267 6.16 26.56C4.64 27.2267 3.50667 28.0667 2.76 29.08C1.98667 30.0933 1.6 31.0667 1.6 32C1.6 33.0133 2.04 33.8933 2.92 34.64C3.8 35.36 5.09333 35.72 6.8 35.72ZM36.8528 36.04C36.2928 36.04 35.8928 35.8933 35.6528 35.6C35.4128 35.28 35.2928 34.88 35.2928 34.4C35.2928 33.68 35.5461 32.8667 36.0528 31.96C36.5595 31.0267 37.2128 30.0533 38.0128 29.04C38.8395 28.0267 39.6928 27.0267 40.5728 26.04C41.4795 25.0533 42.3328 24.1467 43.1328 23.32C42.7328 23.32 42.2928 23.4267 41.8128 23.64C41.3595 23.8533 40.8928 24.1067 40.4128 24.4C39.6928 24.88 38.9061 25.52 38.0528 26.32C37.1995 27.12 36.3461 27.9733 35.4928 28.88C34.6395 29.7867 33.8261 30.68 33.0528 31.56C32.4395 32.28 31.9461 32.88 31.5728 33.36C31.2261 33.84 30.9195 34.28 30.6528 34.68C30.4128 35.0533 30.1461 35.48 29.8528 35.96C29.4261 35.96 29.2128 35.7067 29.2128 35.2C29.2128 34.6667 29.3861 34.0267 29.7328 33.28C30.0528 32.5333 30.3328 31.9467 30.5728 31.52C31.2661 30.3467 32.0528 29.12 32.9328 27.84C33.8395 26.5333 34.6795 25.3867 35.4528 24.4C35.8528 23.8667 36.2795 23.48 36.7328 23.24C37.1861 22.9733 37.5728 22.8133 37.8928 22.76C38.2128 22.68 38.3728 22.64 38.3728 22.64C38.2128 22.88 37.8795 23.3867 37.3728 24.16C36.8661 24.9333 36.2795 25.84 35.6128 26.88C34.9461 27.92 34.2661 28.9733 33.5728 30.04C34.6661 28.7867 35.8395 27.5733 37.0928 26.4C38.3461 25.2 39.5461 24.2267 40.6928 23.48C41.0395 23.24 41.3995 23.04 41.7728 22.88C42.1461 22.72 42.5328 22.64 42.9328 22.64C43.6528 22.64 44.0128 22.92 44.0128 23.48C44.0128 23.9067 43.7595 24.4133 43.2528 25C42.6395 25.72 41.9728 26.52 41.2528 27.4C40.5328 28.28 39.8395 29.1733 39.1728 30.08C38.5328 30.9867 37.9995 31.8267 37.5728 32.6C37.1728 33.3733 36.9728 34 36.9728 34.48C36.9728 34.7467 37.0395 34.9467 37.1728 35.08C37.3328 35.1867 37.4661 35.24 37.5728 35.24C37.9728 35.24 38.4128 35.08 38.8928 34.76C39.3995 34.44 39.8795 34.0667 40.3328 33.64C40.8128 33.1867 41.2261 32.76 41.5728 32.36C41.9461 31.96 42.1861 31.6933 42.2928 31.56C42.3995 31.56 42.4528 31.64 42.4528 31.8C42.4528 32.04 42.3995 32.2267 42.2928 32.36C41.9195 32.76 41.4261 33.2533 40.8128 33.84C40.1995 34.4267 39.5461 34.9467 38.8528 35.4C38.1595 35.8267 37.4928 36.04 36.8528 36.04ZM53.6506 20.96C53.1173 20.96 52.8506 20.7467 52.8506 20.32C52.8506 20.1867 52.8906 20.04 52.9706 19.88C53.104 19.56 53.3306 19.28 53.6506 19.04C53.9973 18.7733 54.3306 18.64 54.6506 18.64C55.1573 18.64 55.4106 18.8533 55.4106 19.28C55.4106 19.68 55.224 20.0533 54.8506 20.4C54.4773 20.7467 54.0773 20.9333 53.6506 20.96ZM44.9706 36.08C44.2506 36.08 43.744 35.8933 43.4506 35.52C43.1306 35.12 42.9706 34.6267 42.9706 34.04C42.9706 33.2667 43.2106 32.44 43.6906 31.56C44.144 30.6533 44.7173 29.76 45.4106 28.88C46.104 27.9733 46.8106 27.1333 47.5306 26.36C48.2506 25.56 48.8773 24.9067 49.4106 24.4C49.9173 23.8933 50.4373 23.52 50.9706 23.28C51.504 23.04 51.9573 22.88 52.3306 22.8C52.7306 22.6933 52.9306 22.64 52.9306 22.64C52.344 23.3067 51.544 24.2533 50.5306 25.48C49.5173 26.7067 48.5173 28.0133 47.5306 29.4C47.4506 29.5067 47.264 29.7733 46.9706 30.2C46.6773 30.6267 46.344 31.12 45.9706 31.68C45.624 32.24 45.3173 32.7867 45.0506 33.32C44.8106 33.8533 44.6906 34.28 44.6906 34.6C44.6906 35.1067 44.9573 35.36 45.4906 35.36C45.8906 35.36 46.3173 35.2133 46.7706 34.92C47.2506 34.6267 47.7306 34.2667 48.2106 33.84C48.6906 33.4133 49.1173 33 49.4906 32.6C49.8906 32.1733 50.1973 31.8267 50.4106 31.56C50.5173 31.56 50.5706 31.64 50.5706 31.8C50.5706 32.04 50.5173 32.2267 50.4106 32.36C49.3973 33.5333 48.4773 34.4533 47.6506 35.12C46.8506 35.76 45.9573 36.08 44.9706 36.08ZM55.1294 36.28C54.596 36.28 54.076 36.2267 53.5694 36.12C53.0894 36.0133 52.6627 35.8267 52.2894 35.56C51.996 35.3467 51.756 35.0533 51.5694 34.68C51.356 34.3067 51.2494 33.8267 51.2494 33.24C51.2494 32.5467 51.4227 32.0133 51.7694 31.64C52.0894 31.2667 52.436 31.08 52.8094 31.08C53.1027 30.7067 53.5027 30.1867 54.0094 29.52C54.516 28.8267 55.076 28.0667 55.6894 27.24C56.3294 26.4133 56.9827 25.5867 57.6494 24.76C58.316 23.9067 58.9427 23.1467 59.5294 22.48C59.9027 22.1067 60.2894 21.7067 60.6894 21.28C61.116 20.8533 61.5827 20.4933 62.0894 20.2C62.6227 19.88 63.1827 19.72 63.7694 19.72C64.2227 19.72 64.5427 19.8267 64.7294 20.04C64.9427 20.2533 65.0494 20.5067 65.0494 20.8C65.0494 20.96 65.0094 21.1067 64.9294 21.24C64.636 21.1867 64.2227 21.24 63.6894 21.4C63.156 21.5333 62.5694 21.7867 61.9294 22.16C61.236 22.5867 60.5294 23.12 59.8094 23.76C59.7827 24.08 59.7427 24.5733 59.6894 25.24C59.6627 25.88 59.6227 26.6133 59.5694 27.44C59.516 28.24 59.4227 29.0533 59.2894 29.88C59.1827 30.68 59.036 31.3867 58.8494 32C58.716 32.4267 58.5027 32.9067 58.2094 33.44C57.916 33.9467 57.516 34.4267 57.0094 34.88C56.5294 35.3067 55.9294 35.6 55.2094 35.76C56.1694 35.76 56.9694 35.6133 57.6094 35.32C58.2494 35.0267 58.7827 34.6933 59.2094 34.32C59.6627 33.92 60.0227 33.6 60.2894 33.36C60.5027 33.1467 60.796 32.84 61.1694 32.44C61.5427 32.04 61.8094 31.7467 61.9694 31.56C62.076 31.56 62.1294 31.64 62.1294 31.8C62.1294 32.04 62.076 32.2267 61.9694 32.36C60.8494 33.56 59.916 34.44 59.1694 35C58.5027 35.5067 57.8227 35.84 57.1294 36C56.436 36.1867 55.7694 36.28 55.1294 36.28ZM53.7294 35.52C54.1827 35.52 54.596 35.3467 54.9694 35C55.3694 34.6267 55.7294 34.2 56.0494 33.72C56.3694 33.2133 56.6227 32.7467 56.8094 32.32C57.1027 31.68 57.4094 30.8667 57.7294 29.88C58.0494 28.8933 58.356 27.8933 58.6494 26.88C58.9427 25.84 59.1827 24.9467 59.3694 24.2C58.6227 24.92 57.876 25.7067 57.1294 26.56C56.4094 27.4133 55.7427 28.2267 55.1294 29C54.516 29.7733 54.0094 30.4133 53.6094 30.92C53.2627 31.3733 52.996 31.8533 52.8094 32.36C52.6227 32.8667 52.5294 33.3467 52.5294 33.8C52.5294 34.3067 52.636 34.72 52.8494 35.04C53.0627 35.36 53.356 35.52 53.7294 35.52ZM69.4056 36.16C68.9256 36.16 68.579 36.04 68.3656 35.8C68.1523 35.56 68.0456 35.2533 68.0456 34.88C68.0456 34.56 68.1256 34.1067 68.2856 33.52C68.6323 32.56 69.139 31.5867 69.8056 30.6C70.4723 29.5867 71.1923 28.6267 71.9656 27.72C72.7656 26.7867 73.5256 25.9467 74.2456 25.2C74.9656 24.4267 75.539 23.8 75.9656 23.32C75.5656 23.32 75.1256 23.4267 74.6456 23.64C74.1923 23.8533 73.7256 24.1067 73.2456 24.4C72.099 25.2 70.939 26.1467 69.7656 27.24C68.619 28.3333 67.539 29.4533 66.5256 30.6C65.539 31.7467 64.699 32.8 64.0056 33.76C63.3123 34.72 62.8723 35.4667 62.6856 36C62.259 36 62.0456 35.7333 62.0456 35.2C62.0456 34.7467 62.179 34.1867 62.4456 33.52C62.7123 32.8267 63.0456 32.1333 63.4456 31.44C64.3523 29.92 65.459 28.28 66.7656 26.52C68.099 24.7333 69.4723 23.0667 70.8856 21.52C72.139 20.1333 73.499 18.88 74.9656 17.76C76.4323 16.64 77.9656 15.8533 79.5656 15.4C79.8056 15.32 80.0856 15.2533 80.4056 15.2C80.7256 15.1467 81.059 15.12 81.4056 15.12C82.0456 15.12 82.5923 15.2133 83.0456 15.4C83.259 15.5067 83.4723 15.6533 83.6856 15.84C83.899 16 84.0456 16.24 84.1256 16.56C83.8323 16.32 83.499 16.1467 83.1256 16.04C82.7523 15.9067 82.299 15.84 81.7656 15.84C80.7256 15.84 79.659 16.1467 78.5656 16.76C77.499 17.3467 76.4723 18.0667 75.4856 18.92C74.5256 19.7733 73.6723 20.6267 72.9256 21.48C72.2056 22.3067 71.6456 22.96 71.2456 23.44C70.2056 24.72 69.2856 25.92 68.4856 27.04C67.7123 28.1333 67.059 29.0667 66.5256 29.84C67.5923 28.6667 68.7523 27.4933 70.0056 26.32C71.2856 25.12 72.459 24.1733 73.5256 23.48C73.8723 23.24 74.2323 23.04 74.6056 22.88C74.979 22.72 75.3656 22.64 75.7656 22.64C76.4856 22.64 76.8456 22.92 76.8456 23.48C76.8456 23.9067 76.5923 24.4133 76.0856 25C75.1523 26.0667 74.2056 27.2533 73.2456 28.56C72.2856 29.84 71.4723 31.12 70.8056 32.4C70.699 32.5867 70.5123 32.96 70.2456 33.52C70.0056 34.0533 69.8856 34.5067 69.8856 34.88C69.8856 35.2 70.0323 35.36 70.3256 35.36C70.939 35.36 71.6856 34.9733 72.5656 34.2C73.4456 33.4 74.299 32.52 75.1256 31.56C75.2323 31.56 75.2856 31.64 75.2856 31.8C75.2856 32.04 75.2323 32.2267 75.1256 32.36C74.7523 32.76 74.2723 33.2667 73.6856 33.88C73.1256 34.4667 72.4856 35 71.7656 35.48C71.0456 35.9333 70.259 36.16 69.4056 36.16Z" fill="white"/>
<path d="M92.36 42.48C91 42.48 89.7733 42.08 88.68 41.28C87.6133 40.48 86.9333 39.32 86.64 37.8C85.0133 37.3467 83.84 36.52 83.12 35.32C82.4 34.0933 82.04 32.68 82.04 31.08C82.04 29.56 82.32 27.9867 82.88 26.36C83.4667 24.7333 84.28 23.2267 85.32 21.84C86.36 20.4267 87.6 19.2933 89.04 18.44C90.48 17.56 92.0667 17.12 93.8 17.12C94.8933 17.12 95.76 17.3867 96.4 17.92C97.0667 18.4267 97.5467 19.0933 97.84 19.92C98.1333 20.72 98.28 21.5467 98.28 22.4C98.28 22.6667 98.2667 22.9333 98.24 23.2C98.2133 23.44 98.1733 23.6933 98.12 23.96C98.44 23.8 98.76 23.64 99.08 23.48C99.4267 23.32 99.7733 23.1733 100.12 23.04L100.68 22.8C101.133 21.7067 101.613 20.64 102.12 19.6C102.627 18.5333 103.2 17.5467 103.84 16.64C104.373 15.8933 105.013 15.2267 105.76 14.64C106.533 14.0533 107.373 13.76 108.28 13.76C109.107 13.76 109.693 13.9467 110.04 14.32C110.387 14.6667 110.56 15.1067 110.56 15.64C110.56 16.3867 110.307 17.0933 109.8 17.76C109.32 18.4267 108.693 19.0533 107.92 19.64C107.147 20.2 106.307 20.7333 105.4 21.24C104.52 21.72 103.667 22.1467 102.84 22.52C102.307 24.12 101.747 25.7333 101.16 27.36C100.6 28.96 99.9067 30.48 99.08 31.92C98.2533 33.3333 97.16 34.5867 95.8 35.68C94.7867 36.5067 93.68 37.12 92.48 37.52C91.3067 37.92 90.1733 38.12 89.08 38.12C88.8933 38.12 88.7067 38.1067 88.52 38.08C88.36 38.08 88.2 38.0667 88.04 38.04C88.2533 39.1067 88.7067 40.0133 89.4 40.76C90.0933 41.5333 91.1467 41.92 92.56 41.92C92.9867 41.92 93.3867 41.8533 93.76 41.72C94.1333 41.6133 94.56 41.4 95.04 41.08C95.04 41.08 95.04 41.0667 95.04 41.04C95.0667 41.04 95.0933 41.04 95.12 41.04C95.2 41.04 95.24 41.12 95.24 41.28C95.24 41.4667 95.08 41.6533 94.76 41.84C94.4667 42.0267 94.0933 42.1733 93.64 42.28C93.1867 42.4133 92.76 42.48 92.36 42.48ZM103.12 21.72C104.16 21.2133 105.187 20.6533 106.2 20.04C107.213 19.4 108.053 18.72 108.72 18C109.387 17.2533 109.72 16.48 109.72 15.68C109.72 15.3067 109.627 14.9867 109.44 14.72C109.28 14.4267 108.973 14.28 108.52 14.28C108.013 14.28 107.52 14.4533 107.04 14.8C106.587 15.12 106.187 15.5067 105.84 15.96C105.493 16.4133 105.2 16.8533 104.96 17.28C104.613 17.9467 104.28 18.6667 103.96 19.44C103.667 20.1867 103.387 20.9467 103.12 21.72ZM86.56 37.2C86.5333 37.0667 86.52 36.9333 86.52 36.8C86.52 36.6667 86.52 36.5467 86.52 36.44C86.52 34.7333 86.9867 33.16 87.92 31.72C88.8533 30.28 90.1067 28.96 91.68 27.76C93.28 26.56 95.0533 25.4667 97 24.48C97.16 23.8667 97.24 23.24 97.24 22.6C97.24 21.8267 97.1333 21.0667 96.92 20.32C96.7067 19.5733 96.3333 18.9467 95.8 18.44C95.2933 17.9333 94.5867 17.68 93.68 17.68C92.2933 17.68 90.9867 18.12 89.76 19C88.56 19.88 87.5067 21.0267 86.6 22.44C85.6933 23.8267 84.9733 25.3333 84.44 26.96C83.9333 28.56 83.68 30.08 83.68 31.52C83.68 32.88 83.8933 34.08 84.32 35.12C84.7467 36.1333 85.4933 36.8267 86.56 37.2ZM87.96 37.44H88.12C89 37.44 90 37.1867 91.12 36.68C92.2667 36.1733 93.48 35.2533 94.76 33.92C96.0933 32.5333 97.16 30.9467 97.96 29.16C98.7867 27.3467 99.5733 25.5067 100.32 23.64L97.88 24.92C97.3733 26.5467 96.5067 28.12 95.28 29.64C94.08 31.16 92.7867 32.4267 91.4 33.44C91.2133 33.5733 91.04 33.64 90.88 33.64C90.7467 33.64 90.68 33.6 90.68 33.52C90.68 33.44 90.7067 33.3733 90.76 33.32C91.9333 32.44 93.0933 31.32 94.24 29.96C95.3867 28.6 96.2133 27.1333 96.72 25.56C95.2 26.44 93.7733 27.4533 92.44 28.6C91.1067 29.72 90.0133 30.9467 89.16 32.28C88.3333 33.5867 87.92 34.9867 87.92 36.48C87.92 36.64 87.92 36.8 87.92 36.96C87.92 37.12 87.9333 37.28 87.96 37.44ZM109.792 36.16C109.312 36.16 108.965 36.04 108.752 35.8C108.538 35.56 108.432 35.2533 108.432 34.88C108.432 34.56 108.512 34.1067 108.672 33.52C109.018 32.56 109.525 31.5867 110.192 30.6C110.858 29.5867 111.578 28.6267 112.352 27.72C113.152 26.7867 113.912 25.9467 114.632 25.2C115.352 24.4267 115.925 23.8 116.352 23.32C115.952 23.32 115.512 23.4267 115.032 23.64C114.578 23.8533 114.112 24.1067 113.632 24.4C112.485 25.2 111.325 26.1467 110.152 27.24C109.005 28.3333 107.925 29.4533 106.912 30.6C105.925 31.7467 105.085 32.8 104.392 33.76C103.698 34.72 103.258 35.4667 103.072 36C102.645 36 102.432 35.7333 102.432 35.2C102.432 34.7467 102.565 34.1867 102.832 33.52C103.098 32.8267 103.432 32.1333 103.832 31.44C104.738 29.92 105.845 28.28 107.152 26.52C108.485 24.7333 109.858 23.0667 111.272 21.52C112.525 20.1333 113.885 18.88 115.352 17.76C116.818 16.64 118.352 15.8533 119.952 15.4C120.192 15.32 120.472 15.2533 120.792 15.2C121.112 15.1467 121.445 15.12 121.792 15.12C122.432 15.12 122.978 15.2133 123.432 15.4C123.645 15.5067 123.858 15.6533 124.072 15.84C124.285 16 124.432 16.24 124.512 16.56C124.218 16.32 123.885 16.1467 123.512 16.04C123.138 15.9067 122.685 15.84 122.152 15.84C121.112 15.84 120.045 16.1467 118.952 16.76C117.885 17.3467 116.858 18.0667 115.872 18.92C114.912 19.7733 114.058 20.6267 113.312 21.48C112.592 22.3067 112.032 22.96 111.632 23.44C110.592 24.72 109.672 25.92 108.872 27.04C108.098 28.1333 107.445 29.0667 106.912 29.84C107.978 28.6667 109.138 27.4933 110.392 26.32C111.672 25.12 112.845 24.1733 113.912 23.48C114.258 23.24 114.618 23.04 114.992 22.88C115.365 22.72 115.752 22.64 116.152 22.64C116.872 22.64 117.232 22.92 117.232 23.48C117.232 23.9067 116.978 24.4133 116.472 25C115.538 26.0667 114.592 27.2533 113.632 28.56C112.672 29.84 111.858 31.12 111.192 32.4C111.085 32.5867 110.898 32.96 110.632 33.52C110.392 34.0533 110.272 34.5067 110.272 34.88C110.272 35.2 110.418 35.36 110.712 35.36C111.325 35.36 112.072 34.9733 112.952 34.2C113.832 33.4 114.685 32.52 115.512 31.56C115.618 31.56 115.672 31.64 115.672 31.8C115.672 32.04 115.618 32.2267 115.512 32.36C115.138 32.76 114.658 33.2667 114.072 33.88C113.512 34.4667 112.872 35 112.152 35.48C111.432 35.9333 110.645 36.16 109.792 36.16ZM119.949 36.28C118.723 36.28 117.856 36.0133 117.349 35.48C116.843 34.9467 116.589 34.2267 116.589 33.32C116.589 32.44 116.829 31.52 117.309 30.56C117.816 29.5733 118.443 28.64 119.189 27.76C119.643 27.2267 120.203 26.6667 120.869 26.08C121.536 25.4933 122.256 24.9467 123.029 24.44C123.803 23.9067 124.563 23.48 125.309 23.16C126.083 22.8133 126.763 22.64 127.349 22.64C127.669 22.64 127.963 22.72 128.229 22.88C128.496 23.0133 128.629 23.32 128.629 23.8C128.629 24.4667 128.309 25.1067 127.669 25.72C127.029 26.3067 126.309 26.8533 125.509 27.36C124.603 27.9467 123.656 28.44 122.669 28.84C121.683 29.24 120.829 29.5467 120.109 29.76C119.709 30.4 119.389 31.0533 119.149 31.72C118.909 32.3867 118.789 33.04 118.789 33.68C118.789 34.3733 118.949 34.8533 119.269 35.12C119.616 35.36 120.016 35.48 120.469 35.48C121.296 35.48 122.043 35.2933 122.709 34.92C123.403 34.52 124.043 34.0133 124.629 33.4C125.216 32.7867 125.776 32.1733 126.309 31.56C126.416 31.56 126.469 31.64 126.469 31.8C126.469 32.04 126.416 32.2267 126.309 32.36C125.776 32.9733 125.189 33.5867 124.549 34.2C123.936 34.8133 123.256 35.32 122.509 35.72C121.763 36.0933 120.909 36.28 119.949 36.28ZM120.589 29.2C121.283 28.96 122.096 28.6267 123.029 28.2C123.989 27.7733 124.829 27.3067 125.549 26.8C125.709 26.6933 125.989 26.48 126.389 26.16C126.789 25.8133 127.163 25.44 127.509 25.04C127.856 24.6133 128.029 24.24 128.029 23.92C128.029 23.4933 127.816 23.28 127.389 23.28C126.936 23.28 126.416 23.48 125.829 23.88C125.269 24.28 124.816 24.6267 124.469 24.92C123.829 25.5067 123.163 26.16 122.469 26.88C121.776 27.6 121.149 28.3733 120.589 29.2ZM132.523 36.08C131.857 36.08 131.377 35.9067 131.083 35.56C130.817 35.2133 130.683 34.7867 130.683 34.28C130.683 33.96 130.723 33.64 130.803 33.32C130.963 32.52 131.363 31.68 132.003 30.8C132.643 29.92 133.403 29.04 134.283 28.16C135.163 27.28 136.057 26.48 136.963 25.76C137.897 25.04 138.723 24.44 139.443 23.96C139.123 24.0133 138.71 24.04 138.203 24.04C137.617 24.04 137.003 24.0133 136.363 23.96C135.723 23.88 135.283 23.76 135.043 23.6C134.937 23.7867 134.67 24.1467 134.243 24.68C133.843 25.1867 133.337 25.8 132.723 26.52C132.137 27.24 131.523 27.9733 130.883 28.72C130.243 29.4667 129.643 30.1733 129.083 30.84C128.523 31.48 128.07 31.9867 127.723 32.36C127.377 32.76 126.91 33.24 126.323 33.8C125.71 34.3333 125.11 34.8133 124.523 35.24C123.91 35.6667 123.403 35.88 123.003 35.88C122.817 35.88 122.71 35.84 122.683 35.76C122.63 35.68 122.603 35.6267 122.603 35.6C123.03 35.6 123.67 35.3067 124.523 34.72C125.35 34.1067 126.417 33.0533 127.723 31.56C129.297 29.7467 130.777 27.8 132.163 25.72C133.577 23.6133 134.843 21.4267 135.963 19.16H136.003C136.35 19.16 136.523 19.4933 136.523 20.16C136.523 20.7733 136.31 21.4933 135.883 22.32C135.777 22.5067 135.617 22.76 135.403 23.08C135.937 23.1867 136.47 23.2667 137.003 23.32C137.537 23.3467 138.03 23.36 138.483 23.36C138.857 23.36 139.203 23.3467 139.523 23.32C139.843 23.2933 140.097 23.2533 140.283 23.2C140.523 23.2 140.643 23.2533 140.643 23.36C140.67 23.44 140.657 23.5067 140.603 23.56C140.497 23.6667 140.27 23.9067 139.923 24.28C139.603 24.6533 139.23 25.0667 138.803 25.52C138.403 25.9467 138.03 26.36 137.683 26.76C137.337 27.1333 137.083 27.4133 136.923 27.6C136.097 28.5867 135.27 29.6667 134.443 30.84C133.643 32.0133 133.083 33.0667 132.763 34C132.657 34.24 132.603 34.4667 132.603 34.68C132.603 35.0533 132.777 35.24 133.123 35.24C133.497 35.24 133.963 35.0267 134.523 34.6C135.083 34.1467 135.643 33.6267 136.203 33.04C136.79 32.4533 137.257 31.96 137.603 31.56C137.71 31.56 137.763 31.64 137.763 31.8C137.763 32.04 137.71 32.2267 137.603 32.36C136.377 33.8 135.377 34.7867 134.603 35.32C133.857 35.8267 133.163 36.08 132.523 36.08ZM142.126 36.28C141.62 36.28 141.1 36.2 140.566 36.04C140.033 35.9067 139.593 35.6267 139.246 35.2C138.9 34.7733 138.726 34.1467 138.726 33.32C138.726 32.4133 138.966 31.4667 139.446 30.48C139.926 29.4933 140.566 28.5333 141.366 27.6C142.193 26.6667 143.086 25.8267 144.046 25.08C145.006 24.3333 145.966 23.7467 146.926 23.32C147.913 22.8667 148.82 22.64 149.646 22.64C150.153 22.64 150.5 22.7733 150.686 23.04C150.9 23.28 151.006 23.5733 151.006 23.92C151.006 24.2667 150.926 24.6 150.766 24.92C150.526 25.48 150.1 26.0533 149.486 26.64C148.9 27.2 148.22 27.48 147.446 27.48C147.153 27.48 146.98 27.3733 146.926 27.16C146.9 26.9467 146.913 26.7867 146.966 26.68C147.34 26.5733 147.846 26.3467 148.486 26C149.126 25.6267 149.633 25.0667 150.006 24.32C150.086 24.16 150.126 24.0133 150.126 23.88C150.126 23.48 149.886 23.28 149.406 23.28C148.793 23.28 147.993 23.6667 147.006 24.44C146.046 25.1867 144.98 26.2667 143.806 27.68C142.98 28.64 142.286 29.6133 141.726 30.6C141.193 31.56 140.926 32.5467 140.926 33.56C140.926 34.1733 141.046 34.6667 141.286 35.04C141.526 35.3867 141.966 35.56 142.606 35.56C143.433 35.56 144.18 35.36 144.846 34.96C145.54 34.56 146.18 34.0533 146.766 33.44C147.353 32.8 147.913 32.1733 148.446 31.56C148.553 31.56 148.606 31.64 148.606 31.8C148.606 32.04 148.553 32.2267 148.446 32.36C147.913 32.9733 147.34 33.5867 146.726 34.2C146.113 34.8133 145.433 35.32 144.686 35.72C143.94 36.0933 143.086 36.28 142.126 36.28ZM155.899 36.16C155.419 36.16 155.073 36.04 154.859 35.8C154.646 35.56 154.539 35.2533 154.539 34.88C154.539 34.56 154.619 34.1067 154.779 33.52C155.126 32.56 155.633 31.5867 156.299 30.6C156.966 29.5867 157.686 28.6267 158.459 27.72C159.259 26.7867 160.019 25.9467 160.739 25.2C161.459 24.4267 162.033 23.8 162.459 23.32C162.059 23.32 161.619 23.4267 161.139 23.64C160.686 23.8533 160.219 24.1067 159.739 24.4C158.593 25.2 157.433 26.1467 156.259 27.24C155.113 28.3333 154.033 29.4533 153.019 30.6C152.033 31.7467 151.193 32.8 150.499 33.76C149.806 34.72 149.366 35.4667 149.179 36C148.753 36 148.539 35.7333 148.539 35.2C148.539 34.7467 148.673 34.1867 148.939 33.52C149.206 32.8267 149.539 32.1333 149.939 31.44C150.846 29.92 151.953 28.28 153.259 26.52C154.593 24.7333 155.966 23.0667 157.379 21.52C158.633 20.1333 159.993 18.88 161.459 17.76C162.926 16.64 164.459 15.8533 166.059 15.4C166.299 15.32 166.579 15.2533 166.899 15.2C167.219 15.1467 167.553 15.12 167.899 15.12C168.539 15.12 169.086 15.2133 169.539 15.4C169.753 15.5067 169.966 15.6533 170.179 15.84C170.393 16 170.539 16.24 170.619 16.56C170.326 16.32 169.993 16.1467 169.619 16.04C169.246 15.9067 168.793 15.84 168.259 15.84C167.219 15.84 166.153 16.1467 165.059 16.76C163.993 17.3467 162.966 18.0667 161.979 18.92C161.019 19.7733 160.166 20.6267 159.419 21.48C158.699 22.3067 158.139 22.96 157.739 23.44C156.699 24.72 155.779 25.92 154.979 27.04C154.206 28.1333 153.553 29.0667 153.019 29.84C154.086 28.6667 155.246 27.4933 156.499 26.32C157.779 25.12 158.953 24.1733 160.019 23.48C160.366 23.24 160.726 23.04 161.099 22.88C161.473 22.72 161.859 22.64 162.259 22.64C162.979 22.64 163.339 22.92 163.339 23.48C163.339 23.9067 163.086 24.4133 162.579 25C161.646 26.0667 160.699 27.2533 159.739 28.56C158.779 29.84 157.966 31.12 157.299 32.4C157.193 32.5867 157.006 32.96 156.739 33.52C156.499 34.0533 156.379 34.5067 156.379 34.88C156.379 35.2 156.526 35.36 156.819 35.36C157.433 35.36 158.179 34.9733 159.059 34.2C159.939 33.4 160.793 32.52 161.619 31.56C161.726 31.56 161.779 31.64 161.779 31.8C161.779 32.04 161.726 32.2267 161.619 32.36C161.246 32.76 160.766 33.2667 160.179 33.88C159.619 34.4667 158.979 35 158.259 35.48C157.539 35.9333 156.753 36.16 155.899 36.16ZM163.737 36.04C162.751 36.04 162.257 35.48 162.257 34.36C162.257 33.72 162.444 32.96 162.817 32.08C163.191 31.1733 163.751 30.2267 164.497 29.24C165.031 28.5733 165.684 27.8667 166.457 27.12C167.231 26.3467 168.071 25.6133 168.977 24.92C169.911 24.2267 170.857 23.6667 171.817 23.24C172.777 22.7867 173.711 22.56 174.617 22.56C175.017 22.56 175.297 22.6267 175.457 22.76C175.617 22.8667 175.724 22.9867 175.777 23.12C175.831 23.2267 175.831 23.3067 175.777 23.36C175.751 23.4133 175.711 23.4267 175.657 23.4C175.551 23.3467 175.337 23.32 175.017 23.32C174.057 23.32 172.911 23.7867 171.577 24.72C170.271 25.6267 168.977 26.8133 167.697 28.28C166.791 29.2933 166.044 30.2933 165.457 31.28C164.871 32.24 164.484 33.04 164.297 33.68C164.244 33.8933 164.217 34.08 164.217 34.24C164.217 34.6133 164.364 34.8 164.657 34.8C164.844 34.8 165.097 34.72 165.417 34.56C165.737 34.3733 166.151 34.0667 166.657 33.64C167.457 32.9467 168.244 32.1333 169.017 31.2C169.817 30.2667 170.604 29.32 171.377 28.36C172.151 27.3733 172.897 26.4667 173.617 25.64C174.364 24.8133 175.071 24.1867 175.737 23.76C176.591 23.2 177.177 22.88 177.497 22.8C177.844 22.72 178.124 22.6667 178.337 22.64C178.204 22.8 177.911 23.1733 177.457 23.76C177.004 24.3467 176.524 24.9733 176.017 25.64C175.511 26.28 175.097 26.8133 174.777 27.24C174.297 27.9333 173.777 28.68 173.217 29.48C172.684 30.28 172.191 31.04 171.737 31.76C171.311 32.4533 171.017 33.0267 170.857 33.48C170.724 33.9333 170.657 34.2667 170.657 34.48C170.657 34.9067 170.831 35.12 171.177 35.12C171.417 35.12 171.697 35.0267 172.017 34.84C172.364 34.6267 172.711 34.3867 173.057 34.12C173.511 33.7467 173.937 33.36 174.337 32.96C174.737 32.5333 175.151 32.0667 175.577 31.56C175.684 31.56 175.737 31.64 175.737 31.8C175.737 32.04 175.684 32.2267 175.577 32.36C175.231 32.76 174.804 33.2 174.297 33.68C173.817 34.16 173.337 34.5867 172.857 34.96C172.511 35.2533 172.111 35.5067 171.657 35.72C171.204 35.9333 170.764 36.04 170.337 36.04C169.724 36.04 169.297 35.8933 169.057 35.6C168.817 35.3067 168.697 34.9333 168.697 34.48C168.697 33.9467 168.817 33.3733 169.057 32.76C169.297 32.12 169.564 31.52 169.857 30.96C169.511 31.3867 169.071 31.9067 168.537 32.52C168.004 33.1067 167.524 33.6 167.097 34C166.511 34.5333 165.951 35.0133 165.417 35.44C164.884 35.84 164.324 36.04 163.737 36.04ZM183.159 36.04C182.599 36.04 182.199 35.8933 181.959 35.6C181.719 35.28 181.599 34.88 181.599 34.4C181.599 33.68 181.852 32.8667 182.359 31.96C182.866 31.0267 183.519 30.0533 184.319 29.04C185.146 28.0267 185.999 27.0267 186.879 26.04C187.786 25.0533 188.639 24.1467 189.439 23.32C189.039 23.32 188.599 23.4267 188.119 23.64C187.666 23.8533 187.199 24.1067 186.719 24.4C185.999 24.88 185.212 25.52 184.359 26.32C183.506 27.12 182.652 27.9733 181.799 28.88C180.946 29.7867 180.132 30.68 179.359 31.56C178.746 32.28 178.252 32.88 177.879 33.36C177.532 33.84 177.226 34.28 176.959 34.68C176.719 35.0533 176.452 35.48 176.159 35.96C175.732 35.96 175.519 35.7067 175.519 35.2C175.519 34.6667 175.692 34.0267 176.039 33.28C176.359 32.5333 176.639 31.9467 176.879 31.52C177.572 30.3467 178.359 29.12 179.239 27.84C180.146 26.5333 180.986 25.3867 181.759 24.4C182.159 23.8667 182.586 23.48 183.039 23.24C183.492 22.9733 183.879 22.8133 184.199 22.76C184.519 22.68 184.679 22.64 184.679 22.64C184.519 22.88 184.186 23.3867 183.679 24.16C183.172 24.9333 182.586 25.84 181.919 26.88C181.252 27.92 180.572 28.9733 179.879 30.04C180.972 28.7867 182.146 27.5733 183.399 26.4C184.652 25.2 185.852 24.2267 186.999 23.48C187.346 23.24 187.706 23.04 188.079 22.88C188.452 22.72 188.839 22.64 189.239 22.64C189.959 22.64 190.319 22.92 190.319 23.48C190.319 23.9067 190.066 24.4133 189.559 25C188.946 25.72 188.279 26.52 187.559 27.4C186.839 28.28 186.146 29.1733 185.479 30.08C184.839 30.9867 184.306 31.8267 183.879 32.6C183.479 33.3733 183.279 34 183.279 34.48C183.279 34.7467 183.346 34.9467 183.479 35.08C183.639 35.1867 183.772 35.24 183.879 35.24C184.279 35.24 184.719 35.08 185.199 34.76C185.706 34.44 186.186 34.0667 186.639 33.64C187.119 33.1867 187.532 32.76 187.879 32.36C188.252 31.96 188.492 31.6933 188.599 31.56C188.706 31.56 188.759 31.64 188.759 31.8C188.759 32.04 188.706 32.2267 188.599 32.36C188.226 32.76 187.732 33.2533 187.119 33.84C186.506 34.4267 185.852 34.9467 185.159 35.4C184.466 35.8267 183.799 36.04 183.159 36.04Z" fill="white"/>
<path d="M194 32.2109C194.612 32.2109 195.126 32.4258 195.543 32.8555C195.96 33.2721 196.168 33.7799 196.168 34.3789C196.168 34.9779 195.953 35.4922 195.523 35.9219C195.107 36.3385 194.599 36.5469 194 36.5469C193.401 36.5469 192.887 36.3385 192.457 35.9219C192.04 35.4922 191.832 34.9779 191.832 34.3789C191.832 33.7669 192.04 33.2526 192.457 32.8359C192.887 32.4193 193.401 32.2109 194 32.2109Z" fill="#DDAC58"/>
<path d="M110.176 50.4082H110.615C110.589 51.2546 110.348 51.9186 109.893 52.4004C109.437 52.8757 108.88 53.1133 108.223 53.1133C107.923 53.1133 107.601 53.0645 107.256 52.9668C106.911 52.8626 106.019 52.5176 104.58 51.9316C103.577 51.515 102.865 51.3066 102.441 51.3066C101.986 51.3066 101.602 51.4466 101.289 51.7266C100.977 52.0065 100.755 52.4622 100.625 53.0938H100.195C100.234 52.2148 100.475 51.5443 100.918 51.082C101.361 50.6133 101.882 50.3789 102.48 50.3789C102.767 50.3789 103.06 50.4245 103.359 50.5156C104.036 50.7109 104.925 51.0462 106.025 51.5215C107.132 51.9902 107.91 52.2246 108.359 52.2246C108.848 52.2246 109.258 52.0684 109.59 51.7559C109.922 51.4434 110.117 50.9941 110.176 50.4082Z" fill="#00C5E1"/>
<path d="M20.0859 54.8193V55H17.249V54.8193H17.4834C17.7568 54.8193 17.9554 54.7396 18.0791 54.5801C18.1572 54.4759 18.1963 54.2253 18.1963 53.8281V49.5508C18.1963 49.2155 18.1751 48.9941 18.1328 48.8867C18.1003 48.8053 18.0335 48.7354 17.9326 48.6768C17.7894 48.5986 17.6396 48.5596 17.4834 48.5596H17.249V48.3789H20.0859V48.5596H19.8467C19.5765 48.5596 19.3796 48.6393 19.2559 48.7988C19.1745 48.903 19.1338 49.1536 19.1338 49.5508V53.8281C19.1338 54.1634 19.1549 54.3848 19.1973 54.4922C19.2298 54.5736 19.2982 54.6436 19.4023 54.7021C19.5423 54.7803 19.6904 54.8193 19.8467 54.8193H20.0859ZM22.8982 48.3789H24.6951L28.743 53.3447V49.5264C28.743 49.1195 28.6974 48.8656 28.6062 48.7646C28.4858 48.6279 28.2954 48.5596 28.035 48.5596H27.8055V48.3789H30.1102V48.5596H29.8758C29.5958 48.5596 29.3973 48.6442 29.2801 48.8135C29.2085 48.9176 29.1727 49.1553 29.1727 49.5264V55.1074H28.9969L24.6316 49.7754V53.8525C24.6316 54.2594 24.6756 54.5133 24.7635 54.6143C24.8872 54.751 25.0776 54.8193 25.3348 54.8193H25.5691V55H23.2645V54.8193H23.4939C23.7771 54.8193 23.9773 54.7347 24.0945 54.5654C24.1661 54.4613 24.202 54.2236 24.202 53.8525V49.248C24.0099 49.0234 23.8634 48.8753 23.7625 48.8037C23.6648 48.7321 23.52 48.6654 23.3279 48.6035C23.2335 48.5742 23.0903 48.5596 22.8982 48.5596V48.3789ZM32.8248 48.3789H34.6217L38.6695 53.3447V49.5264C38.6695 49.1195 38.624 48.8656 38.5328 48.7646C38.4124 48.6279 38.2219 48.5596 37.9615 48.5596H37.732V48.3789H40.0367V48.5596H39.8023C39.5224 48.5596 39.3238 48.6442 39.2066 48.8135C39.135 48.9176 39.0992 49.1553 39.0992 49.5264V55.1074H38.9234L34.5582 49.7754V53.8525C34.5582 54.2594 34.6021 54.5133 34.69 54.6143C34.8137 54.751 35.0042 54.8193 35.2613 54.8193H35.4957V55H33.191V54.8193H33.4205C33.7037 54.8193 33.9039 54.7347 34.0211 54.5654C34.0927 54.4613 34.1285 54.2236 34.1285 53.8525V49.248C33.9365 49.0234 33.79 48.8753 33.6891 48.8037C33.5914 48.7321 33.4465 48.6654 33.2545 48.6035C33.1601 48.5742 33.0169 48.5596 32.8248 48.5596V48.3789ZM46.5404 48.2275C47.3998 48.2275 48.1436 48.5547 48.7719 49.209C49.4034 49.86 49.7191 50.6738 49.7191 51.6504C49.7191 52.6562 49.4018 53.4912 48.767 54.1553C48.1322 54.8193 47.364 55.1514 46.4623 55.1514C45.5508 55.1514 44.7842 54.8275 44.1625 54.1797C43.544 53.5319 43.2348 52.6937 43.2348 51.665C43.2348 50.6136 43.5928 49.7559 44.309 49.0918C44.9307 48.5156 45.6745 48.2275 46.5404 48.2275ZM46.4477 48.584C45.8552 48.584 45.3799 48.8037 45.0219 49.2432C44.5759 49.79 44.3529 50.5908 44.3529 51.6455C44.3529 52.7262 44.584 53.5579 45.0463 54.1406C45.4011 54.5833 45.8699 54.8047 46.4525 54.8047C47.0743 54.8047 47.587 54.5622 47.9906 54.0771C48.3975 53.5921 48.601 52.8271 48.601 51.7822C48.601 50.6494 48.378 49.8047 47.932 49.248C47.574 48.8053 47.0792 48.584 46.4477 48.584ZM59.9094 48.3789V48.5596C59.675 48.6019 59.4976 48.6768 59.3771 48.7842C59.2046 48.9437 59.0516 49.1878 58.9182 49.5166L56.6086 55.1514H56.4279L53.9475 49.4434C53.8205 49.1504 53.731 48.9714 53.6789 48.9062C53.5975 48.8053 53.4966 48.7272 53.3762 48.6719C53.259 48.6133 53.0995 48.5758 52.8977 48.5596V48.3789H55.6027V48.5596C55.2967 48.5889 55.0982 48.641 55.007 48.7158C54.9159 48.7907 54.8703 48.8867 54.8703 49.0039C54.8703 49.1667 54.9452 49.4206 55.0949 49.7656L56.7795 53.6475L58.342 49.8145C58.495 49.4368 58.5715 49.1748 58.5715 49.0283C58.5715 48.9339 58.5243 48.8444 58.4299 48.7598C58.3355 48.6719 58.176 48.61 57.9514 48.5742C57.9351 48.571 57.9074 48.5661 57.8684 48.5596V48.3789H59.9094ZM66.0225 52.7832H63.459L63.0098 53.8281C62.8991 54.0853 62.8438 54.2773 62.8438 54.4043C62.8438 54.5052 62.891 54.5947 62.9854 54.6729C63.083 54.7477 63.2913 54.7965 63.6104 54.8193V55H61.5254V54.8193C61.8021 54.7705 61.9811 54.707 62.0625 54.6289C62.2285 54.4727 62.4124 54.1553 62.6143 53.6768L64.9434 48.2275H65.1143L67.4189 53.7354C67.6045 54.1781 67.7721 54.4661 67.9219 54.5996C68.0749 54.7298 68.2865 54.8031 68.5566 54.8193V55H65.9443V54.8193C66.208 54.8063 66.3854 54.7624 66.4766 54.6875C66.571 54.6126 66.6182 54.5215 66.6182 54.4141C66.6182 54.2708 66.5531 54.0446 66.4229 53.7354L66.0225 52.7832ZM65.8857 52.4219L64.7627 49.7461L63.6104 52.4219H65.8857ZM76.0467 48.3789L76.1199 49.9316H75.9344C75.8986 49.6582 75.8497 49.4629 75.7879 49.3457C75.687 49.1569 75.5519 49.0186 75.3826 48.9307C75.2166 48.8395 74.9969 48.7939 74.7234 48.7939H73.7908V53.8525C73.7908 54.2594 73.8348 54.5133 73.9227 54.6143C74.0464 54.751 74.2368 54.8193 74.4939 54.8193H74.7234V55H71.9158V54.8193H72.1502C72.4301 54.8193 72.6287 54.7347 72.7459 54.5654C72.8175 54.4613 72.8533 54.2236 72.8533 53.8525V48.7939H72.0574C71.7482 48.7939 71.5285 48.8167 71.3982 48.8623C71.229 48.9242 71.0841 49.043 70.9637 49.2188C70.8432 49.3945 70.7716 49.6322 70.7488 49.9316H70.5633L70.6414 48.3789H76.0467ZM81.1637 48.7402V51.3574H82.6188C82.9964 51.3574 83.2486 51.3005 83.3756 51.1865C83.5449 51.0368 83.6393 50.7731 83.6588 50.3955H83.8395V52.7002H83.6588C83.6132 52.3779 83.5676 52.1712 83.5221 52.0801C83.4635 51.9661 83.3674 51.8766 83.234 51.8115C83.1005 51.7464 82.8954 51.7139 82.6188 51.7139H81.1637V53.8965C81.1637 54.1895 81.1767 54.3685 81.2027 54.4336C81.2288 54.4954 81.2744 54.5459 81.3395 54.585C81.4046 54.6208 81.5283 54.6387 81.7105 54.6387H82.8336C83.2079 54.6387 83.4798 54.6126 83.649 54.5605C83.8183 54.5085 83.9811 54.4059 84.1373 54.2529C84.3391 54.0511 84.5458 53.7467 84.7574 53.3398H84.9527L84.3814 55H79.2789V54.8193H79.5133C79.6695 54.8193 79.8176 54.7819 79.9576 54.707C80.0618 54.6549 80.1318 54.5768 80.1676 54.4727C80.2066 54.3685 80.2262 54.1553 80.2262 53.833V49.5312C80.2262 49.1113 80.1839 48.8525 80.0992 48.7549C79.982 48.6247 79.7867 48.5596 79.5133 48.5596H79.2789V48.3789H84.3814L84.4547 49.8291H84.2643C84.1959 49.4808 84.1194 49.2415 84.0348 49.1113C83.9534 48.9811 83.8313 48.8818 83.6686 48.8135C83.5383 48.7646 83.3089 48.7402 82.9801 48.7402H81.1637Z" fill="#ABABAB"/>
<path d="M125.171 54V53.8193H125.42C125.7 53.8193 125.898 53.7298 126.016 53.5508C126.087 53.4434 126.123 53.2025 126.123 52.8281V48.5508C126.123 48.1374 126.077 47.8786 125.986 47.7744C125.859 47.6312 125.671 47.5596 125.42 47.5596H125.171V47.3789H127.866C128.856 47.3789 129.608 47.4912 130.122 47.7158C130.64 47.9404 131.055 48.3148 131.367 48.8389C131.683 49.363 131.841 49.9684 131.841 50.6553C131.841 51.5765 131.561 52.3464 131.001 52.9648C130.373 53.6549 129.416 54 128.13 54H125.171ZM127.061 53.5215C127.474 53.6126 127.821 53.6582 128.101 53.6582C128.856 53.6582 129.482 53.3929 129.98 52.8623C130.479 52.3317 130.728 51.6123 130.728 50.7041C130.728 49.7894 130.479 49.0684 129.98 48.541C129.482 48.0137 128.843 47.75 128.062 47.75C127.769 47.75 127.435 47.7972 127.061 47.8916V53.5215ZM137.016 47.7402V50.3574H138.471C138.849 50.3574 139.101 50.3005 139.228 50.1865C139.398 50.0368 139.492 49.7731 139.512 49.3955H139.692V51.7002H139.512C139.466 51.3779 139.42 51.1712 139.375 51.0801C139.316 50.9661 139.22 50.8766 139.087 50.8115C138.953 50.7464 138.748 50.7139 138.471 50.7139H137.016V52.8965C137.016 53.1895 137.029 53.3685 137.055 53.4336C137.082 53.4954 137.127 53.5459 137.192 53.585C137.257 53.6208 137.381 53.6387 137.563 53.6387H138.686C139.061 53.6387 139.332 53.6126 139.502 53.5605C139.671 53.5085 139.834 53.4059 139.99 53.2529C140.192 53.0511 140.399 52.7467 140.61 52.3398H140.805L140.234 54H135.132V53.8193H135.366C135.522 53.8193 135.67 53.7819 135.81 53.707C135.915 53.6549 135.985 53.5768 136.02 53.4727C136.059 53.3685 136.079 53.1553 136.079 52.833V48.5312C136.079 48.1113 136.037 47.8525 135.952 47.7549C135.835 47.6247 135.639 47.5596 135.366 47.5596H135.132V47.3789H140.234L140.307 48.8291H140.117C140.049 48.4808 139.972 48.2415 139.887 48.1113C139.806 47.9811 139.684 47.8818 139.521 47.8135C139.391 47.7646 139.162 47.7402 138.833 47.7402H137.016ZM148.325 47.2275V49.5176H148.144C148.086 49.0781 147.98 48.7282 147.827 48.4678C147.677 48.2074 147.462 48.0007 147.182 47.8477C146.902 47.6947 146.613 47.6182 146.313 47.6182C145.975 47.6182 145.695 47.7223 145.473 47.9307C145.252 48.1357 145.141 48.3701 145.141 48.6338C145.141 48.8356 145.211 49.0195 145.351 49.1855C145.553 49.4297 146.033 49.7552 146.792 50.1621C147.41 50.4941 147.832 50.7497 148.056 50.9287C148.284 51.1045 148.458 51.3128 148.579 51.5537C148.702 51.7946 148.764 52.0469 148.764 52.3105C148.764 52.8118 148.569 53.2448 148.178 53.6094C147.791 53.9707 147.291 54.1514 146.679 54.1514C146.487 54.1514 146.307 54.1367 146.137 54.1074C146.036 54.0911 145.826 54.0326 145.507 53.9316C145.192 53.8275 144.991 53.7754 144.907 53.7754C144.825 53.7754 144.76 53.7998 144.712 53.8486C144.666 53.8975 144.632 53.9984 144.609 54.1514H144.428V51.8809H144.609C144.694 52.3561 144.808 52.7126 144.951 52.9502C145.094 53.1846 145.312 53.3799 145.605 53.5361C145.901 53.6924 146.225 53.7705 146.577 53.7705C146.984 53.7705 147.304 53.6631 147.539 53.4482C147.776 53.2334 147.895 52.9795 147.895 52.6865C147.895 52.5238 147.85 52.3594 147.758 52.1934C147.671 52.0273 147.532 51.8727 147.343 51.7295C147.216 51.6318 146.87 51.4251 146.303 51.1094C145.737 50.7904 145.333 50.5365 145.092 50.3477C144.855 50.1589 144.674 49.9505 144.55 49.7227C144.427 49.4948 144.365 49.2441 144.365 48.9707C144.365 48.4954 144.547 48.0869 144.912 47.7451C145.276 47.4001 145.74 47.2275 146.303 47.2275C146.655 47.2275 147.028 47.3138 147.421 47.4863C147.604 47.5677 147.732 47.6084 147.807 47.6084C147.892 47.6084 147.96 47.584 148.012 47.5352C148.068 47.4831 148.112 47.3805 148.144 47.2275H148.325ZM155.092 53.8193V54H152.255V53.8193H152.49C152.763 53.8193 152.962 53.7396 153.085 53.5801C153.163 53.4759 153.203 53.2253 153.203 52.8281V48.5508C153.203 48.2155 153.181 47.9941 153.139 47.8867C153.107 47.8053 153.04 47.7354 152.939 47.6768C152.796 47.5986 152.646 47.5596 152.49 47.5596H152.255V47.3789H155.092V47.5596H154.853C154.583 47.5596 154.386 47.6393 154.262 47.7988C154.181 47.903 154.14 48.1536 154.14 48.5508V52.8281C154.14 53.1634 154.161 53.3848 154.204 53.4922C154.236 53.5736 154.304 53.6436 154.409 53.7021C154.549 53.7803 154.697 53.8193 154.853 53.8193H155.092ZM164.174 47.2275L164.345 49.3174H164.174C164.001 48.7965 163.779 48.4043 163.505 48.1406C163.111 47.7598 162.605 47.5693 161.987 47.5693C161.143 47.5693 160.502 47.903 160.063 48.5703C159.695 49.1335 159.511 49.804 159.511 50.582C159.511 51.2135 159.633 51.7897 159.877 52.3105C160.121 52.8314 160.44 53.2139 160.834 53.458C161.231 53.6989 161.638 53.8193 162.055 53.8193C162.299 53.8193 162.535 53.7884 162.763 53.7266C162.991 53.6647 163.21 53.5736 163.422 53.4531V51.5391C163.422 51.207 163.396 50.9906 163.344 50.8896C163.295 50.7855 163.217 50.7074 163.11 50.6553C163.005 50.5999 162.82 50.5723 162.553 50.5723V50.3867H165.116V50.5723H164.994C164.74 50.5723 164.566 50.6569 164.472 50.8262C164.407 50.9466 164.374 51.1842 164.374 51.5391V53.5654C164 53.7673 163.63 53.9154 163.266 54.0098C162.901 54.1042 162.496 54.1514 162.05 54.1514C160.771 54.1514 159.799 53.7412 159.135 52.9209C158.637 52.3057 158.388 51.596 158.388 50.792C158.388 50.2093 158.528 49.651 158.808 49.1172C159.14 48.4824 159.596 47.9941 160.175 47.6523C160.66 47.3691 161.233 47.2275 161.894 47.2275C162.135 47.2275 162.353 47.2471 162.548 47.2861C162.747 47.3252 163.027 47.4115 163.388 47.5449C163.57 47.6133 163.692 47.6475 163.754 47.6475C163.816 47.6475 163.868 47.6198 163.91 47.5645C163.956 47.5059 163.984 47.3936 163.993 47.2275H164.174ZM167.831 47.3789H169.628L173.676 52.3447V48.5264C173.676 48.1195 173.63 47.8656 173.539 47.7646C173.419 47.6279 173.228 47.5596 172.968 47.5596H172.738V47.3789H175.043V47.5596H174.809C174.529 47.5596 174.33 47.6442 174.213 47.8135C174.141 47.9176 174.105 48.1553 174.105 48.5264V54.1074H173.93L169.564 48.7754V52.8525C169.564 53.2594 169.608 53.5133 169.696 53.6143C169.82 53.751 170.01 53.8193 170.268 53.8193H170.502V54H168.197V53.8193H168.427C168.71 53.8193 168.91 53.7347 169.027 53.5654C169.099 53.4613 169.135 53.2236 169.135 52.8525V48.248C168.943 48.0234 168.796 47.8753 168.695 47.8037C168.598 47.7321 168.453 47.6654 168.261 47.6035C168.166 47.5742 168.023 47.5596 167.831 47.5596V47.3789Z" fill="#ABABAB"/>
</svg>
