<svg width="408" height="466" viewBox="0 0 408 466" fill="none" xmlns="http://www.w3.org/2000/svg">
<g clip-path="url(#clip0_6_92)">
<path d="M195.796 437.165L195.276 425.474C195.222 425.445 195.168 425.416 195.114 425.388C189.542 422.464 183.156 427.757 184.936 433.792C186.61 439.47 187.735 445.592 190.8 450.562C192.611 453.449 195.049 455.891 197.932 457.708C200.815 459.525 204.07 460.67 207.456 461.058L214.535 465.392C215.506 459.977 215.292 454.416 213.907 449.092C212.522 443.767 210 438.807 206.513 434.552C204.533 432.184 202.263 430.075 199.756 428.274C198.061 432.744 195.796 437.165 195.796 437.165Z" fill="#F2F2F2"/>
<path d="M132.419 318.518C118.79 304.463 99.0408 296.403 78.2342 296.403L77.4316 296.405C63.7268 296.41 50.2665 292.775 38.4275 285.872L37.1955 285.154L38.1878 284.132C43.5596 278.574 48.0452 272.224 51.4872 265.303C49.0426 267.582 46.1269 269.296 42.9465 270.323C39.7661 271.351 36.3988 271.667 33.0828 271.248C29.582 270.831 26.2211 269.626 23.2523 267.725C20.2834 265.823 17.7837 263.274 15.9406 260.269C8.6685 248.47 0 231.728 0 218.974C0.0113202 208.194 2.26858 197.534 6.62791 187.674C10.9872 177.815 17.353 168.971 25.3194 161.708C30.3629 157.161 34.3913 151.601 37.142 145.392C39.8928 139.184 41.3041 132.465 41.284 125.674L41.28 124.708C41.2786 115.767 42.3712 106.86 44.5333 98.1853L44.7529 97.3093L45.6542 97.3408C51.4666 97.5386 57.282 97.0514 62.9804 95.8893C57.6353 95.2337 52.4063 93.8429 47.4418 91.7565L46.4721 91.3643L46.8012 90.3707C69.4852 76.3259 120.689 83.599 150.41 15.602C174.509 -39.5344 259.54 64.5466 259.54 124.708C259.54 130.847 253.464 138.959 258.012 143.016C307.177 186.877 273.254 215.042 262.559 243.382C260.021 250.106 265.523 257.488 265.523 264.763C265.523 265.997 265.492 267.271 265.43 268.55L265.335 270.516L263.696 269.425C260.453 267.3 257.447 264.835 254.729 262.07C257.548 268.558 258.877 275.596 258.617 282.666C258.358 289.735 256.516 296.656 253.228 302.92C248.076 312.644 243.091 319.606 238.413 323.611C223.427 336.435 204.107 343.05 184.405 342.104C164.703 341.157 146.107 332.72 132.419 318.518Z" fill="#E6E6E6"/>
<path d="M214.731 464.815C215.066 464.815 215.389 464.693 215.642 464.474C215.895 464.254 216.06 463.95 216.108 463.619C216.167 463.203 221.962 421.41 216.757 365.866C211.951 314.57 196.516 240.685 150.278 180.005C150.167 179.859 150.029 179.737 149.871 179.645C149.713 179.552 149.538 179.492 149.356 179.468C149.175 179.443 148.991 179.454 148.814 179.501C148.637 179.548 148.471 179.629 148.325 179.74C148.18 179.851 148.057 179.989 147.965 180.148C147.873 180.306 147.813 180.481 147.789 180.662C147.765 180.843 147.776 181.028 147.823 181.205C147.87 181.382 147.951 181.548 148.063 181.693C193.901 241.849 209.212 315.192 213.984 366.126C219.158 421.347 213.409 462.814 213.35 463.226C213.322 463.424 213.337 463.625 213.394 463.816C213.45 464.008 213.547 464.185 213.678 464.335C213.809 464.486 213.971 464.607 214.152 464.69C214.334 464.772 214.531 464.815 214.731 464.815Z" fill="#3F3D56"/>
<path d="M176.998 265.597C177.292 265.598 177.579 265.505 177.817 265.332C178.055 265.159 178.232 264.915 178.323 264.636C178.414 264.356 178.414 264.055 178.324 263.775C178.233 263.495 178.056 263.251 177.818 263.078C177.65 262.956 160.735 250.769 135.447 241.51C112.07 232.952 76.5226 225.193 39.9268 236.84C39.7523 236.895 39.5904 236.984 39.4503 237.102C39.3103 237.22 39.1948 237.364 39.1106 237.527C39.0264 237.689 38.9751 237.867 38.9595 238.049C38.944 238.232 38.9646 238.415 39.0201 238.59C39.0756 238.764 39.1649 238.926 39.283 239.066C39.4011 239.206 39.5456 239.321 39.7083 239.405C39.8709 239.489 40.0485 239.54 40.2309 239.555C40.4134 239.57 40.597 239.549 40.7713 239.494C76.6173 228.086 111.521 235.716 134.489 244.125C159.416 253.252 176.016 265.212 176.18 265.331C176.418 265.504 176.704 265.597 176.998 265.597Z" fill="#3F3D56"/>
<path d="M240.732 106.864C240.753 106.57 240.681 106.278 240.526 106.028C240.371 105.778 240.141 105.583 239.868 105.473C239.596 105.362 239.295 105.34 239.01 105.41C238.724 105.481 238.468 105.64 238.278 105.865C238.145 106.023 224.77 122.016 213.714 146.571C203.495 169.27 193.196 204.166 202.177 241.505C202.264 241.864 202.489 242.174 202.804 242.367C203.119 242.559 203.498 242.619 203.857 242.533C204.216 242.446 204.526 242.221 204.719 241.906C204.912 241.591 204.971 241.212 204.885 240.853C196.088 204.28 206.212 170.017 216.254 147.714C227.152 123.51 240.276 107.816 240.408 107.66C240.597 107.435 240.711 107.157 240.732 106.864Z" fill="#3F3D56"/>
<path d="M238.847 178.666C240.022 188.145 246.591 195.961 256.142 195.961C260.729 195.961 265.128 194.138 268.372 190.895C271.615 187.652 273.437 183.253 273.437 178.666C273.437 169.114 265.653 162.254 256.142 161.371C246.051 160.434 237.339 166.496 238.847 178.666Z" fill="#2F2E41"/>
<path d="M264.153 457.198L270.739 457.197L273.872 431.794L264.151 431.794L264.153 457.198Z" fill="#FFB6B6"/>
<path d="M263.921 464.068L284.174 464.067V463.811C284.174 461.72 283.344 459.715 281.865 458.237C280.387 456.759 278.382 455.928 276.291 455.928L272.591 453.122L265.689 455.929L263.921 455.929L263.921 464.068Z" fill="#2F2E41"/>
<path d="M238.21 457.198L244.796 457.197L247.929 431.794L238.209 431.794L238.21 457.198Z" fill="#FFB6B6"/>
<path d="M237.979 464.068L258.232 464.067V463.811C258.232 461.72 257.401 459.715 255.923 458.237C254.444 456.759 252.439 455.928 250.349 455.928L246.649 453.122L239.746 455.929L237.978 455.929L237.979 464.068Z" fill="#2F2E41"/>
<path d="M286.817 298.092L291.474 314.056L285.988 381.669C285.988 381.669 288.813 385.896 286.817 385.896C284.822 385.896 282.263 386.833 283.875 389.358C285.487 391.883 279.977 400.946 279.977 400.946L272.183 449.088L262.252 448.941C262.252 448.941 257.203 446.129 260.037 443.285C262.87 440.441 264.866 440.441 262.205 437.78C259.544 435.119 259.544 435.921 259.544 433.857C259.544 431.793 256.879 406.574 263.2 396.9L261.296 357.458L256.809 396.146L247.571 447.758L238.004 447.679C238.004 447.679 233.585 443.42 233.594 440.267C233.602 437.115 236.324 436.853 234.297 434.988C232.271 433.124 232.271 404.479 238.258 388.557C238.258 388.557 241.645 379.661 238.25 376.612C234.856 373.564 238.246 370.076 238.246 370.076C238.246 370.076 243.622 368.132 238.241 362.533C232.861 356.934 238.212 317.335 238.212 317.335C238.212 317.335 232.33 301.35 238.287 295.065C244.245 288.779 286.817 298.092 286.817 298.092Z" fill="#2F2E41"/>
<path d="M203.884 325.597L212.192 305.52L218.738 309.157L214.785 329.58C215.181 330.874 215.208 332.252 214.863 333.561C214.518 334.869 213.815 336.056 212.833 336.986C211.851 337.917 210.629 338.556 209.304 338.83C207.979 339.105 206.604 339.004 205.333 338.54C204.062 338.075 202.946 337.266 202.11 336.202C201.274 335.138 200.751 333.862 200.601 332.517C200.45 331.172 200.678 329.812 201.258 328.59C201.838 327.367 202.748 326.331 203.884 325.597Z" fill="#FFB6B6"/>
<path d="M343.292 166.838L330.651 184.51L325.1 179.485L333.578 160.489C333.485 159.139 333.771 157.79 334.404 156.594C335.036 155.397 335.989 154.401 337.157 153.717C338.324 153.033 339.659 152.688 341.012 152.721C342.364 152.754 343.681 153.163 344.814 153.904C345.946 154.644 346.85 155.685 347.423 156.911C347.997 158.137 348.216 159.498 348.058 160.842C347.9 162.186 347.37 163.459 346.529 164.518C345.687 165.577 344.566 166.381 343.292 166.838Z" fill="#FFB6B6"/>
<path d="M288.072 299.729C296.271 312.446 255.057 328.585 239.243 322.105C236.474 320.971 226.949 317.224 233.46 312.028C239.971 306.833 232.705 306.102 232.533 302.72C232.419 300.459 234.169 295.499 232.343 295.711C230.516 295.924 228.378 292.797 232.356 291.451C236.334 290.106 232.399 288.879 232.434 287.602C232.814 273.662 243.509 251.491 243.509 251.491L224.238 300.752C224.238 300.752 224.38 309.275 221.923 306.67C219.465 304.066 219.644 312.495 219.644 312.495C219.644 312.495 215.989 315.045 218.091 316.465C220.192 317.884 215.829 322.247 215.829 322.247L205.647 321.52C205.647 321.52 205.806 313.957 207.545 312.284C209.283 310.611 208.429 307.979 208.429 307.979C208.429 307.979 212.955 303.973 209.921 300.719C206.018 296.535 220.248 225.866 225.158 226.566C225.852 223.188 227.467 220.067 229.825 217.548C232.182 215.03 235.19 213.213 238.515 212.297L249.513 209.269L251.465 201.522H266.95L269.647 206.612L281.42 211.925C283.637 208.796 285.294 205.499 294.375 204.431C294.375 204.431 318.842 182.169 317.648 180.431C316.453 178.693 320.246 174.623 320.246 174.623C320.246 174.623 323.485 173.563 321.658 172.997C319.83 172.431 323.285 171.122 323.285 171.122C323.285 171.122 326.484 170.282 324.975 169.174C323.466 168.067 330.012 167.34 330.012 167.34L338.504 174.269L336.788 177.18C336.788 177.18 337.834 181.143 336.468 179.696C335.103 178.249 334.845 182.448 334.845 182.448C334.845 182.448 334.148 187.046 330.012 188.431C325.875 189.816 322.739 202.976 322.739 202.976C312.984 215.659 301.472 225.553 287.829 232.067C293.146 238.169 288.072 299.729 288.072 299.729Z" fill="#6561A8"/>
<path d="M258.054 196.988C266.524 196.988 273.391 190.121 273.391 181.651C273.391 173.181 266.524 166.315 258.054 166.315C249.584 166.315 242.718 173.181 242.718 181.651C242.718 190.121 249.584 196.988 258.054 196.988Z" fill="#FFB6B6"/>
<path d="M242.173 183.322C242.659 186.655 245.499 191.304 244.834 191.304C244.169 191.304 239.439 177.566 244.169 176.67C247.599 176.021 248.366 176.591 251.573 175.2L251.12 175.626C253.242 177.169 256.196 176.218 258.617 175.214C261.045 174.216 263.992 173.265 266.12 174.801C267.457 175.766 268.023 177.442 268.854 178.865C269.686 180.296 271.222 181.646 272.806 181.207C274.076 180.854 274.808 179.431 274.801 178.114C274.794 176.797 273.079 175.544 273.657 174.362C275.369 170.86 273.829 168.473 270.098 166.826C268.741 166.619 267.384 166.409 266.027 166.194C266.738 165.209 267.6 164.342 268.582 163.626C268.167 162.563 267.45 161.645 266.519 160.985C265.435 160.34 264.091 160.387 262.834 160.453C260.027 160.6 257.222 160.746 254.42 160.892C252.344 160.999 250.196 161.125 248.34 162.076C246.025 163.267 244.508 165.588 243.404 167.95C240.929 173.258 241.322 177.528 242.173 183.322Z" fill="#2F2E41"/>
<path d="M178.374 465.796L329.207 466C329.417 466 329.619 465.917 329.767 465.768C329.916 465.62 329.999 465.418 329.999 465.208C329.999 464.998 329.916 464.796 329.767 464.648C329.619 464.499 329.417 464.416 329.207 464.416L178.374 464.212C178.164 464.212 177.962 464.295 177.814 464.444C177.665 464.592 177.582 464.794 177.582 465.004C177.582 465.214 177.665 465.415 177.814 465.564C177.962 465.712 178.164 465.796 178.374 465.796Z" fill="#CACACA"/>
<path d="M123.821 396.756C124.099 394.845 122.098 392.971 119.351 392.572C116.603 392.172 114.151 393.397 113.873 395.308C113.595 397.219 115.596 399.093 118.344 399.492C121.091 399.892 123.543 398.667 123.821 396.756Z" fill="#E6E6E6"/>
<path d="M156.53 393.564C156.808 391.653 154.806 389.78 152.059 389.38C149.312 388.98 146.86 390.206 146.581 392.117C146.303 394.028 148.305 395.901 151.052 396.301C153.799 396.7 156.252 395.475 156.53 393.564Z" fill="#3F3D56"/>
<path d="M114.865 370.276C115.143 368.365 113.141 366.492 110.394 366.092C107.647 365.692 105.194 366.918 104.916 368.829C104.638 370.74 106.64 372.613 109.387 373.013C112.134 373.412 114.587 372.187 114.865 370.276Z" fill="#FF6584"/>
<path d="M100.652 359.43C100.665 357.675 99.6866 356.246 98.466 356.236C97.2455 356.227 96.2454 357.642 96.2321 359.396C96.2188 361.151 97.1975 362.58 98.418 362.59C99.6385 362.599 100.639 361.184 100.652 359.43Z" fill="#E6E6E6"/>
<path d="M95.8321 339.227C95.8454 337.473 94.8668 336.043 93.6463 336.034C92.4258 336.024 91.4256 337.439 91.4123 339.194C91.399 340.948 92.3777 342.378 93.5982 342.387C94.8187 342.396 95.8189 340.981 95.8321 339.227Z" fill="#3F3D56"/>
<path d="M133.313 374.782C133.326 373.028 132.347 371.598 131.127 371.589C129.906 371.58 128.906 372.994 128.893 374.749C128.88 376.503 129.858 377.933 131.079 377.942C132.299 377.951 133.299 376.537 133.313 374.782Z" fill="#E6E6E6"/>
<path d="M117.506 382.674C117.52 380.92 116.541 379.49 115.321 379.481C114.1 379.471 113.1 380.886 113.087 382.641C113.073 384.395 114.052 385.825 115.272 385.834C116.493 385.843 117.493 384.428 117.506 382.674Z" fill="#FF6584"/>
<path d="M139.509 397.26C139.523 395.505 138.544 394.076 137.323 394.066C136.103 394.057 135.103 395.472 135.09 397.226C135.076 398.981 136.055 400.411 137.275 400.42C138.496 400.429 139.496 399.014 139.509 397.26Z" fill="#3F3D56"/>
<path d="M375.266 294.318C375.544 292.407 373.542 290.534 370.795 290.134C368.048 289.734 365.595 290.959 365.317 292.87C365.039 294.781 367.041 296.655 369.788 297.054C372.535 297.454 374.987 296.229 375.266 294.318Z" fill="#E6E6E6"/>
<path d="M407.974 291.126C408.252 289.215 406.251 287.342 403.503 286.942C400.756 286.543 398.304 287.768 398.026 289.679C397.748 291.59 399.749 293.463 402.496 293.863C405.244 294.263 407.696 293.037 407.974 291.126Z" fill="#3F3D56"/>
<path d="M366.308 267.838C366.586 265.927 364.585 264.054 361.838 263.654C359.09 263.255 356.638 264.48 356.36 266.391C356.082 268.302 358.083 270.175 360.831 270.575C363.578 270.975 366.03 269.749 366.308 267.838Z" fill="#FF6584"/>
<path d="M352.096 256.992C352.109 255.237 351.131 253.808 349.91 253.798C348.69 253.789 347.69 255.204 347.676 256.958C347.663 258.713 348.642 260.143 349.862 260.152C351.083 260.161 352.083 258.746 352.096 256.992Z" fill="#E6E6E6"/>
<path d="M347.276 236.789C347.29 235.035 346.311 233.605 345.09 233.596C343.87 233.587 342.87 235.001 342.856 236.756C342.843 238.51 343.822 239.94 345.042 239.949C346.263 239.958 347.263 238.544 347.276 236.789Z" fill="#3F3D56"/>
<path d="M384.757 272.344C384.77 270.59 383.792 269.16 382.571 269.151C381.351 269.142 380.35 270.557 380.337 272.311C380.324 274.065 381.303 275.495 382.523 275.504C383.744 275.514 384.744 274.099 384.757 272.344Z" fill="#E6E6E6"/>
<path d="M368.951 280.236C368.964 278.482 367.985 277.052 366.765 277.043C365.544 277.033 364.544 278.448 364.531 280.203C364.518 281.957 365.496 283.387 366.717 283.396C367.937 283.405 368.937 281.99 368.951 280.236Z" fill="#FF6584"/>
<path d="M390.953 294.822C390.967 293.068 389.988 291.638 388.768 291.629C387.547 291.619 386.547 293.034 386.534 294.789C386.52 296.543 387.499 297.973 388.72 297.982C389.94 297.991 390.94 296.576 390.953 294.822Z" fill="#3F3D56"/>
<path d="M253.535 104.741C253.813 102.83 251.811 100.957 249.064 100.557C246.317 100.158 243.864 101.383 243.586 103.294C243.308 105.205 245.31 107.078 248.057 107.478C250.804 107.878 253.257 106.652 253.535 104.741Z" fill="white"/>
<path d="M286.243 101.55C286.521 99.6386 284.52 97.7654 281.772 97.3657C279.025 96.966 276.573 98.1912 276.295 100.102C276.017 102.013 278.018 103.887 280.766 104.286C283.513 104.686 285.965 103.461 286.243 101.55Z" fill="#3F3D56"/>
<path d="M244.578 78.2616C244.856 76.3506 242.854 74.4773 240.107 74.0776C237.36 73.6779 234.908 74.9031 234.629 76.8142C234.351 78.7252 236.353 80.5985 239.1 80.9982C241.847 81.3979 244.3 80.1727 244.578 78.2616Z" fill="#FF6584"/>
<path d="M230.365 67.4152C230.379 65.6608 229.4 64.231 228.179 64.2218C226.959 64.2126 225.959 65.6273 225.945 67.3818C225.932 69.1362 226.911 70.566 228.131 70.5752C229.352 70.5844 230.352 69.1696 230.365 67.4152Z" fill="#E6E6E6"/>
<path d="M225.545 47.2126C225.559 45.4581 224.58 44.0284 223.36 44.0192C222.139 44.0099 221.139 45.4247 221.126 47.1792C221.112 48.9336 222.091 50.3633 223.311 50.3726C224.532 50.3818 225.532 48.967 225.545 47.2126Z" fill="#3F3D56"/>
<path d="M263.026 82.7678C263.039 81.0133 262.061 79.5836 260.84 79.5744C259.62 79.5652 258.619 80.9799 258.606 82.7344C258.593 84.4888 259.572 85.9185 260.792 85.9278C262.013 85.937 263.013 84.5222 263.026 82.7678Z" fill="#E6E6E6"/>
<path d="M247.22 90.6595C247.233 88.905 246.254 87.4753 245.034 87.4661C243.813 87.4569 242.813 88.8716 242.8 90.626C242.787 92.3805 243.765 93.8102 244.986 93.8194C246.206 93.8287 247.206 92.4139 247.22 90.6595Z" fill="#FF6584"/>
<path d="M269.223 105.245C269.236 103.491 268.257 102.061 267.037 102.052C265.816 102.043 264.816 103.458 264.803 105.212C264.79 106.966 265.768 108.396 266.989 108.405C268.209 108.415 269.209 107 269.223 105.245Z" fill="#3F3D56"/>
</g>
<defs>
<clipPath id="clip0_6_92">
<rect width="408" height="466" fill="white"/>
</clipPath>
</defs>
</svg>
